<svg xmlns="http://www.w3.org/2000/svg" xmlns:xlink="http://www.w3.org/1999/xlink" width="129.209" height="174.945" viewBox="0 0 129.209 174.945">
  <defs>
    <linearGradient id="linear-gradient" x1="-0.09" y1="-0.032" x2="0.963" y2="1.116" gradientUnits="objectBoundingBox">
      <stop offset="0" stop-color="#efd35e"/>
      <stop offset="0.51" stop-color="#f9b316"/>
      <stop offset="1" stop-color="#ed690f"/>
    </linearGradient>
  </defs>
  <g id="logo_yellow" transform="translate(-0.146)">
    <g id="Warstwa_1" data-name="Warstwa 1" transform="translate(0.146)">
      <path id="Path_15" data-name="Path 15" d="M64.834,0a64.757,64.757,0,0,0-5.382,129.284h.033a36.447,36.447,0,0,0,1.075-5.594l.084-.887c.023-.272.047-.54.056-.816.042-.6.061-1.211.066-1.835a35.494,35.494,0,0,0-1.633-10.924c-14.866-1.947-24.687-11.6-24.687-25.748V58.455a4.58,4.58,0,0,1,3.135-4.341h.066l.122-.042.141-.038h0l.108-.028a.2.2,0,0,1,.056,0h.061l.206-.042H91.314l.206.038a.879.879,0,0,1,.192.042h0a4.575,4.575,0,0,1,3.51,4.453V83.48c0,14.11-9.7,23.754-24.551,25.734A37.227,37.227,0,0,0,69.1,120.007c0,.882.042,1.741.1,2.576.047.6.108,1.187.178,1.764a36.98,36.98,0,0,0,.939,4.913h0A64.757,64.757,0,0,0,64.834,0ZM64.67,36.808a6.34,6.34,0,0,1-6.34,6.363H40.78a6.335,6.335,0,0,1-6.335-6.34V34.687a6.33,6.33,0,0,1,6.335-6.335h17.55a6.335,6.335,0,0,1,6.34,6.335Zm21.947,6.363c-4.411,0-7.977-2.989-7.977-7.363,0-4.444,3.548-7.433,7.977-7.433,4.5,0,8.048,2.989,8.048,7.433C94.665,40.159,91.113,43.171,86.617,43.171Zm-48.6,10.816-.108.028a1.681,1.681,0,0,1,.174-.052h.033l.235-.042-.206.042Zm-.108.028Zm53.828,0ZM5.239,150.63a3.186,3.186,0,0,1-2.21-.713,2.862,2.862,0,0,1,0-3.956,3.247,3.247,0,0,1,2.21-.68q3,0,3,2.679T5.239,150.63Zm0,24.181a2.346,2.346,0,0,1-1.877-.718,2.938,2.938,0,0,1-.648-2.027V157.172q0-2.759,2.515-2.759t2.557,2.759v14.889a2.919,2.919,0,0,1-.671,2.032,2.407,2.407,0,0,1-1.877.727Zm11.886-.286a2.437,2.437,0,0,1-2.759-2.759V148.692a2.439,2.439,0,0,1,2.759-2.759H24.99q7.18,0,11.093,3.693T40,160.213q0,6.856-3.918,10.591T24.99,174.534Zm2.435-4.3h5.105q9.9,0,9.9-10.023t-9.9-9.972H19.551Zm28.624,4.627a2.293,2.293,0,0,1-2.595-2.6V156.928a2.226,2.226,0,0,1,2.473-2.557q2.473,0,2.478,2.557v1.258q1.455-3.491,6.246-3.895,1.746-.206,1.952,1.99t-2.112,2.393l-.892.08q-4.979.488-4.979,5.11v8.4a2.282,2.282,0,0,1-2.562,2.6Zm20.45.08a8.559,8.559,0,0,1-3.8-.84,6.645,6.645,0,0,1-2.637-2.252,5.631,5.631,0,0,1-.938-3.2,5.049,5.049,0,0,1,1.136-3.472,6.807,6.807,0,0,1,3.693-1.844,32.811,32.811,0,0,1,6.856-.568h1.408V161.9a4.03,4.03,0,0,0-.892-2.919,4.148,4.148,0,0,0-3-.892,12.539,12.539,0,0,0-2.539.282,13.66,13.66,0,0,0-2.858.976,1.8,1.8,0,0,1-1.624.1,1.746,1.746,0,0,1-.873-1.093,2.266,2.266,0,0,1,.08-1.52,2.008,2.008,0,0,1,1.239-1.136,18.113,18.113,0,0,1,3.59-1.1,17.147,17.147,0,0,1,3.144-.324q4.341,0,6.452,2.008t2.112,6.227v9.756c0,1.732-.788,2.6-2.346,2.6s-2.393-.868-2.393-2.6v-.892a5.57,5.57,0,0,1-2.191,2.618,6.537,6.537,0,0,1-3.6.953Zm1.056-3.491a4.4,4.4,0,0,0,3.285-1.38,4.843,4.843,0,0,0,1.319-3.487v-.892h-1.38a16.278,16.278,0,0,0-5.3.587,2.135,2.135,0,0,0-1.478,2.13,2.816,2.816,0,0,0,.938,2.191,3.7,3.7,0,0,0,2.623.859Zm17.935,3.411c-1.68,0-2.515-.868-2.515-2.6V156.928c0-1.7.821-2.557,2.473-2.557s2.478.854,2.478,2.557v.849a6.738,6.738,0,0,1,2.736-2.595,8.292,8.292,0,0,1,3.876-.892q7.039,0,7.039,8.156v9.817q0,2.595-2.515,2.6a2.318,2.318,0,0,1-2.576-2.6V162.69a5.264,5.264,0,0,0-.873-3.369,3.3,3.3,0,0,0-2.7-1.056,4.636,4.636,0,0,0-3.548,1.408,5.162,5.162,0,0,0-1.323,3.712v8.878a2.276,2.276,0,0,1-2.543,2.6Zm24.547,0c-1.68,0-2.515-.868-2.515-2.6V148.162a2.238,2.238,0,0,1,2.515-2.553,2.264,2.264,0,0,1,2.553,2.553v14.974h.084L121.5,156.1a13.831,13.831,0,0,1,1.408-1.258,2.782,2.782,0,0,1,1.666-.446,2.168,2.168,0,0,1,1.6.549,1.793,1.793,0,0,1,.549,1.319,2.262,2.262,0,0,1-.732,1.539l-6.1,6.415,6.776,7.3a2.051,2.051,0,0,1,.671,1.563,1.811,1.811,0,0,1-.671,1.3,2.346,2.346,0,0,1-1.539.507,3.186,3.186,0,0,1-1.807-.469,8.246,8.246,0,0,1-1.483-1.337L114.8,165.7h-.084v6.57a2.257,2.257,0,0,1-2.534,2.6Z" transform="translate(-0.146)" fill="url(#linear-gradient)"/>
      <g id="Group_10" data-name="Group 10">
        <g id="Group_9" data-name="Group 9" opacity="0.2">
          <path id="Path_16" data-name="Path 16" d="M64.834,0a64.757,64.757,0,0,0-5.382,129.284h.033a36.447,36.447,0,0,0,1.075-5.594l.084-.887c.023-.272.047-.54.056-.816.042-.6.061-1.211.066-1.835a35.494,35.494,0,0,0-1.633-10.924c-14.866-1.947-24.687-11.6-24.687-25.748V58.455a4.58,4.58,0,0,1,3.135-4.341h.066l.122-.042.141-.038h0l.108-.028a.2.2,0,0,1,.056,0h.061l.206-.042H91.314l.206.038a.879.879,0,0,1,.192.042h0a4.575,4.575,0,0,1,3.51,4.453V83.48c0,14.11-9.7,23.754-24.551,25.734A37.227,37.227,0,0,0,69.1,120.007c0,.882.042,1.741.1,2.576.047.6.108,1.187.178,1.764a36.98,36.98,0,0,0,.939,4.913h0A64.757,64.757,0,0,0,64.834,0ZM64.67,36.808a6.34,6.34,0,0,1-6.34,6.363H40.78a6.335,6.335,0,0,1-6.335-6.34V34.687a6.33,6.33,0,0,1,6.335-6.335h17.55a6.335,6.335,0,0,1,6.34,6.335Zm21.947,6.363c-4.411,0-7.977-2.989-7.977-7.363,0-4.444,3.548-7.433,7.977-7.433,4.5,0,8.048,2.989,8.048,7.433C94.665,40.159,91.113,43.171,86.617,43.171Zm-48.6,10.816-.108.028a1.681,1.681,0,0,1,.174-.052h.033l.235-.042-.206.042Zm-.108.028Zm53.828,0ZM5.239,150.63a3.186,3.186,0,0,1-2.21-.713,2.862,2.862,0,0,1,0-3.956,3.247,3.247,0,0,1,2.21-.68q3,0,3,2.679T5.239,150.63Zm0,24.181a2.346,2.346,0,0,1-1.877-.718,2.938,2.938,0,0,1-.648-2.027V157.172q0-2.759,2.515-2.759t2.557,2.759v14.889a2.919,2.919,0,0,1-.671,2.032,2.407,2.407,0,0,1-1.877.727Zm11.886-.286a2.437,2.437,0,0,1-2.759-2.759V148.692a2.439,2.439,0,0,1,2.759-2.759H24.99q7.18,0,11.093,3.693T40,160.213q0,6.856-3.918,10.591T24.99,174.534Zm2.435-4.3h5.105q9.9,0,9.9-10.023t-9.9-9.972H19.551Zm28.624,4.627a2.293,2.293,0,0,1-2.595-2.6V156.928a2.226,2.226,0,0,1,2.473-2.557q2.473,0,2.478,2.557v1.258q1.455-3.491,6.246-3.895,1.746-.206,1.952,1.99t-2.112,2.393l-.892.08q-4.979.488-4.979,5.11v8.4a2.282,2.282,0,0,1-2.562,2.6Zm20.45.08a8.559,8.559,0,0,1-3.8-.84,6.645,6.645,0,0,1-2.637-2.252,5.631,5.631,0,0,1-.938-3.2,5.049,5.049,0,0,1,1.136-3.472,6.807,6.807,0,0,1,3.693-1.844,32.811,32.811,0,0,1,6.856-.568h1.408V161.9a4.03,4.03,0,0,0-.892-2.919,4.148,4.148,0,0,0-3-.892,12.539,12.539,0,0,0-2.539.282,13.66,13.66,0,0,0-2.858.976,1.8,1.8,0,0,1-1.624.1,1.746,1.746,0,0,1-.873-1.093,2.266,2.266,0,0,1,.08-1.52,2.008,2.008,0,0,1,1.239-1.136,18.113,18.113,0,0,1,3.59-1.1,17.147,17.147,0,0,1,3.144-.324q4.341,0,6.452,2.008t2.112,6.227v9.756c0,1.732-.788,2.6-2.346,2.6s-2.393-.868-2.393-2.6v-.892a5.57,5.57,0,0,1-2.191,2.618,6.537,6.537,0,0,1-3.6.953Zm1.056-3.491a4.4,4.4,0,0,0,3.285-1.38,4.843,4.843,0,0,0,1.319-3.487v-.892h-1.38a16.278,16.278,0,0,0-5.3.587,2.135,2.135,0,0,0-1.478,2.13,2.816,2.816,0,0,0,.938,2.191,3.7,3.7,0,0,0,2.623.859Zm17.935,3.411c-1.68,0-2.515-.868-2.515-2.6V156.928c0-1.7.821-2.557,2.473-2.557s2.478.854,2.478,2.557v.849a6.738,6.738,0,0,1,2.736-2.595,8.292,8.292,0,0,1,3.876-.892q7.039,0,7.039,8.156v9.817q0,2.595-2.515,2.6a2.318,2.318,0,0,1-2.576-2.6V162.69a5.264,5.264,0,0,0-.873-3.369,3.3,3.3,0,0,0-2.7-1.056,4.636,4.636,0,0,0-3.548,1.408,5.162,5.162,0,0,0-1.323,3.712v8.878a2.276,2.276,0,0,1-2.543,2.6Zm24.547,0c-1.68,0-2.515-.868-2.515-2.6V148.162a2.238,2.238,0,0,1,2.515-2.553,2.264,2.264,0,0,1,2.553,2.553v14.974h.084L121.5,156.1a13.831,13.831,0,0,1,1.408-1.258,2.782,2.782,0,0,1,1.666-.446,2.168,2.168,0,0,1,1.6.549,1.793,1.793,0,0,1,.549,1.319,2.262,2.262,0,0,1-.732,1.539l-6.1,6.415,6.776,7.3a2.051,2.051,0,0,1,.671,1.563,1.811,1.811,0,0,1-.671,1.3,2.346,2.346,0,0,1-1.539.507,3.186,3.186,0,0,1-1.807-.469,8.246,8.246,0,0,1-1.483-1.337L114.8,165.7h-.084v6.57a2.257,2.257,0,0,1-2.534,2.6Z" transform="translate(-0.146)" fill="#fcfcfc"/>
        </g>
      </g>
    </g>
  </g>
</svg>
