<svg xmlns="http://www.w3.org/2000/svg" xmlns:xlink="http://www.w3.org/1999/xlink" width="393" height="581.5" viewBox="0 0 393 581.5">
  <defs>
    <filter id="Rectangle_55" x="204.215" y="359.3" width="163.477" height="143.303" filterUnits="userSpaceOnUse">
      <feOffset input="SourceAlpha"/>
      <feGaussianBlur stdDeviation="20" result="blur"/>
      <feFlood flood-opacity="0.039"/>
      <feComposite operator="in" in2="blur"/>
      <feComposite in="SourceGraphic"/>
    </filter>
    <filter id="Rectangle_56" x="190.601" y="361.318" width="172.029" height="144.74" filterUnits="userSpaceOnUse">
      <feOffset input="SourceAlpha"/>
      <feGaussianBlur stdDeviation="20" result="blur-2"/>
      <feFlood flood-opacity="0.039"/>
      <feComposite operator="in" in2="blur-2"/>
      <feComposite in="SourceGraphic"/>
    </filter>
    <filter id="Rectangle_57" x="200.053" y="373.561" width="161.735" height="147.801" filterUnits="userSpaceOnUse">
      <feOffset input="SourceAlpha"/>
      <feGaussianBlur stdDeviation="20" result="blur-3"/>
      <feFlood flood-opacity="0.039"/>
      <feComposite operator="in" in2="blur-3"/>
      <feComposite in="SourceGraphic"/>
    </filter>
    <filter id="Rectangle_58" x="207.634" y="347.774" width="179.037" height="161.028" filterUnits="userSpaceOnUse">
      <feOffset input="SourceAlpha"/>
      <feGaussianBlur stdDeviation="20" result="blur-4"/>
      <feFlood flood-opacity="0.039"/>
      <feComposite operator="in" in2="blur-4"/>
      <feComposite in="SourceGraphic"/>
    </filter>
    <filter id="Rectangle_59" x="162.1" y="349.066" width="194.817" height="156.046" filterUnits="userSpaceOnUse">
      <feOffset input="SourceAlpha"/>
      <feGaussianBlur stdDeviation="20" result="blur-5"/>
      <feFlood flood-opacity="0.039"/>
      <feComposite operator="in" in2="blur-5"/>
      <feComposite in="SourceGraphic"/>
    </filter>
    <filter id="Rectangle_60" x="234.836" y="390.121" width="121.941" height="121.901" filterUnits="userSpaceOnUse">
      <feOffset input="SourceAlpha"/>
      <feGaussianBlur stdDeviation="20" result="blur-6"/>
      <feFlood flood-opacity="0.039"/>
      <feComposite operator="in" in2="blur-6"/>
      <feComposite in="SourceGraphic"/>
    </filter>
    <filter id="Rectangle_61" x="165.262" y="330.061" width="226.933" height="185.807" filterUnits="userSpaceOnUse">
      <feOffset input="SourceAlpha"/>
      <feGaussianBlur stdDeviation="20" result="blur-7"/>
      <feFlood flood-opacity="0.039"/>
      <feComposite operator="in" in2="blur-7"/>
      <feComposite in="SourceGraphic"/>
    </filter>
    <filter id="Rectangle_62" x="148.386" y="278.446" width="168.342" height="193.623" filterUnits="userSpaceOnUse">
      <feOffset input="SourceAlpha"/>
      <feGaussianBlur stdDeviation="20" result="blur-8"/>
      <feFlood flood-opacity="0.039"/>
      <feComposite operator="in" in2="blur-8"/>
      <feComposite in="SourceGraphic"/>
    </filter>
    <filter id="Rectangle_63" x="151.562" y="277.004" width="133.196" height="218.532" filterUnits="userSpaceOnUse">
      <feOffset input="SourceAlpha"/>
      <feGaussianBlur stdDeviation="20" result="blur-9"/>
      <feFlood flood-opacity="0.039"/>
      <feComposite operator="in" in2="blur-9"/>
      <feComposite in="SourceGraphic"/>
    </filter>
    <filter id="Rectangle_64" x="178.825" y="277.004" width="133.196" height="218.532" filterUnits="userSpaceOnUse">
      <feOffset input="SourceAlpha"/>
      <feGaussianBlur stdDeviation="20" result="blur-10"/>
      <feFlood flood-opacity="0.039"/>
      <feComposite operator="in" in2="blur-10"/>
      <feComposite in="SourceGraphic"/>
    </filter>
    <filter id="Rectangle_65" x="172.559" y="277" width="145.058" height="218.536" filterUnits="userSpaceOnUse">
      <feOffset input="SourceAlpha"/>
      <feGaussianBlur stdDeviation="20" result="blur-11"/>
      <feFlood flood-opacity="0.039"/>
      <feComposite operator="in" in2="blur-11"/>
      <feComposite in="SourceGraphic"/>
    </filter>
    <filter id="Rectangle_66" x="169.057" y="340.245" width="191.43" height="159.612" filterUnits="userSpaceOnUse">
      <feOffset input="SourceAlpha"/>
      <feGaussianBlur stdDeviation="20" result="blur-12"/>
      <feFlood flood-opacity="0.039"/>
      <feComposite operator="in" in2="blur-12"/>
      <feComposite in="SourceGraphic"/>
    </filter>
    <filter id="Rectangle_67" x="159.386" y="352.907" width="234.072" height="293.3" filterUnits="userSpaceOnUse">
      <feOffset input="SourceAlpha"/>
      <feGaussianBlur stdDeviation="20" result="blur-13"/>
      <feFlood flood-opacity="0.039"/>
      <feComposite operator="in" in2="blur-13"/>
      <feComposite in="SourceGraphic"/>
    </filter>
    <filter id="Rectangle_68" x="229.569" y="454.104" width="213.88" height="263.631" filterUnits="userSpaceOnUse">
      <feOffset input="SourceAlpha"/>
      <feGaussianBlur stdDeviation="20" result="blur-14"/>
      <feFlood flood-opacity="0.039"/>
      <feComposite operator="in" in2="blur-14"/>
      <feComposite in="SourceGraphic"/>
    </filter>
    <filter id="Rectangle_69" x="147.5" y="277" width="327.092" height="440.736" filterUnits="userSpaceOnUse">
      <feOffset input="SourceAlpha"/>
      <feGaussianBlur stdDeviation="20" result="blur-15"/>
      <feFlood flood-opacity="0.039"/>
      <feComposite operator="in" in2="blur-15"/>
      <feComposite in="SourceGraphic"/>
    </filter>
    <filter id="Rectangle_70" x="147.5" y="277" width="327.092" height="440.736" filterUnits="userSpaceOnUse">
      <feOffset input="SourceAlpha"/>
      <feGaussianBlur stdDeviation="20" result="blur-16"/>
      <feFlood flood-opacity="0.039"/>
      <feComposite operator="in" in2="blur-16"/>
      <feComposite in="SourceGraphic"/>
    </filter>
    <filter id="Intersection_9" x="-60" y="-60" width="513" height="701.5" filterUnits="userSpaceOnUse">
      <feOffset input="SourceAlpha"/>
      <feGaussianBlur stdDeviation="20" result="blur-17"/>
      <feFlood flood-opacity="0.039"/>
      <feComposite operator="in" in2="blur-17"/>
      <feComposite in="SourceGraphic"/>
    </filter>
    <clipPath id="clip-path">
      <rect id="Rectangle_91" data-name="Rectangle 91" width="393" height="581.5" fill="none"/>
    </clipPath>
    <clipPath id="clip-path-2">
      <g transform="matrix(1, 0, 0, 1, 0, 0)" filter="url(#Intersection_9)">
        <path id="Intersection_9-2" data-name="Intersection 9" d="M517,871.332V335H910V871.331a450.013,450.013,0,0,1-393,0Z" transform="translate(-1477 676)" fill="#142dc1"/>
      </g>
    </clipPath>
    <clipPath id="clip-path-3">
      <rect id="Rectangle_70-2" data-name="Rectangle 70" width="207.092" height="320.736" fill="rgba(0,0,0,0)"/>
    </clipPath>
    <clipPath id="clip-path-5">
      <rect id="Rectangle_55-2" data-name="Rectangle 55" width="43.477" height="23.303" fill="rgba(0,0,0,0)"/>
    </clipPath>
    <clipPath id="clip-path-6">
      <rect id="Rectangle_56-2" data-name="Rectangle 56" width="52.029" height="24.74" fill="rgba(0,0,0,0)"/>
    </clipPath>
    <clipPath id="clip-path-7">
      <rect id="Rectangle_57-2" data-name="Rectangle 57" width="41.735" height="27.801" fill="rgba(0,0,0,0)"/>
    </clipPath>
    <clipPath id="clip-path-8">
      <rect id="Rectangle_58-2" data-name="Rectangle 58" width="59.037" height="41.028" fill="rgba(0,0,0,0)"/>
    </clipPath>
    <clipPath id="clip-path-9">
      <rect id="Rectangle_59-2" data-name="Rectangle 59" width="74.817" height="36.046" fill="rgba(0,0,0,0)"/>
    </clipPath>
    <clipPath id="clip-path-10">
      <rect id="Rectangle_60-2" data-name="Rectangle 60" width="1.941" height="1.901" fill="rgba(0,0,0,0)"/>
    </clipPath>
    <clipPath id="clip-path-11">
      <rect id="Rectangle_61-2" data-name="Rectangle 61" width="106.933" height="65.807" fill="rgba(0,0,0,0)"/>
    </clipPath>
    <clipPath id="clip-path-12">
      <rect id="Rectangle_62-2" data-name="Rectangle 62" width="48.342" height="73.623" fill="rgba(0,0,0,0)"/>
    </clipPath>
    <clipPath id="clip-path-13">
      <rect id="Rectangle_63-2" data-name="Rectangle 63" width="13.196" height="98.532" fill="rgba(0,0,0,0)"/>
    </clipPath>
    <clipPath id="clip-path-15">
      <rect id="Rectangle_65-2" data-name="Rectangle 65" width="25.058" height="98.536" fill="rgba(0,0,0,0)"/>
    </clipPath>
    <clipPath id="clip-path-16">
      <rect id="Rectangle_66-2" data-name="Rectangle 66" width="71.43" height="39.612" fill="rgba(0,0,0,0)"/>
    </clipPath>
    <clipPath id="clip-path-17">
      <rect id="Rectangle_67-2" data-name="Rectangle 67" width="114.072" height="173.3" fill="rgba(0,0,0,0)"/>
    </clipPath>
    <clipPath id="clip-path-18">
      <rect id="Rectangle_68-2" data-name="Rectangle 68" width="93.88" height="143.631" fill="rgba(0,0,0,0)"/>
    </clipPath>
    <filter id="Intersection_8" x="147.501" y="277" width="327.092" height="440.736" filterUnits="userSpaceOnUse">
      <feOffset input="SourceAlpha"/>
      <feGaussianBlur stdDeviation="20" result="blur-18"/>
      <feFlood flood-opacity="0.039"/>
      <feComposite operator="in" in2="blur-18"/>
      <feComposite in="SourceGraphic"/>
    </filter>
    <clipPath id="clip-path-19">
      <rect id="Rectangle_90" data-name="Rectangle 90" width="335.021" height="447.516" fill="none"/>
    </clipPath>
    <clipPath id="clip-path-21">
      <rect id="Rectangle_72" data-name="Rectangle 72" width="50.941" height="44.493" fill="none"/>
    </clipPath>
    <clipPath id="clip-path-22">
      <rect id="Rectangle_73" data-name="Rectangle 73" width="26.468" height="31.312" fill="none"/>
    </clipPath>
    <clipPath id="clip-path-23">
      <rect id="Rectangle_74" data-name="Rectangle 74" width="20.928" height="16.302" fill="none"/>
    </clipPath>
    <clipPath id="clip-path-24">
      <rect id="Rectangle_75" data-name="Rectangle 75" width="62.915" height="79.85" fill="none"/>
    </clipPath>
    <clipPath id="clip-path-25">
      <rect id="Rectangle_76" data-name="Rectangle 76" width="25.991" height="94.633" fill="none"/>
    </clipPath>
    <clipPath id="clip-path-27">
      <rect id="Rectangle_78" data-name="Rectangle 78" width="32.373" height="94.632" fill="none"/>
    </clipPath>
    <clipPath id="clip-path-28">
      <rect id="Rectangle_79" data-name="Rectangle 79" width="21.691" height="26.466" fill="none"/>
    </clipPath>
    <clipPath id="clip-path-29">
      <rect id="Rectangle_80" data-name="Rectangle 80" width="115.372" height="104.89" fill="none"/>
    </clipPath>
    <clipPath id="clip-path-30">
      <rect id="Rectangle_81" data-name="Rectangle 81" width="75.175" height="100.861" fill="none"/>
    </clipPath>
    <clipPath id="clip-path-31">
      <rect id="Rectangle_82" data-name="Rectangle 82" width="65.19" height="63.138" fill="none"/>
    </clipPath>
    <clipPath id="clip-path-32">
      <rect id="Rectangle_83" data-name="Rectangle 83" width="10" height="10.001" fill="none"/>
    </clipPath>
    <clipPath id="clip-path-33">
      <rect id="Rectangle_84" data-name="Rectangle 84" width="167.385" height="233.273" fill="none"/>
    </clipPath>
    <clipPath id="clip-path-34">
      <rect id="Rectangle_85" data-name="Rectangle 85" width="150.829" height="243.244" fill="none"/>
    </clipPath>
    <clipPath id="clip-path-35">
      <rect id="Rectangle_86" data-name="Rectangle 86" width="27.261" height="36.126" fill="none"/>
    </clipPath>
    <clipPath id="clip-path-36">
      <rect id="Rectangle_87" data-name="Rectangle 87" width="22.133" height="35.917" fill="none"/>
    </clipPath>
    <clipPath id="clip-path-37">
      <rect id="Rectangle_88" data-name="Rectangle 88" width="49.524" height="36.211" fill="none"/>
    </clipPath>
    <linearGradient id="linear-gradient" x1="0.5" x2="0.5" y2="1" gradientUnits="objectBoundingBox">
      <stop offset="0" stop-color="#142dc1" stop-opacity="0.502"/>
      <stop offset="0.435" stop-color="#142dc1" stop-opacity="0.102"/>
      <stop offset="1" stop-color="#142dc1" stop-opacity="0"/>
    </linearGradient>
  </defs>
  <g id="main_bg" transform="translate(0 -60)">
    <g id="Group_170" data-name="Group 170" transform="translate(0 60)">
      <g id="Group_169" data-name="Group 169" clip-path="url(#clip-path)">
        <path id="Path_143" data-name="Path 143" d="M393,85.41V0H0V487a17.345,17.345,0,0,0,3.66-2.36c5.93-.85,20.75-3.77,35.59-6.15,14.83-2.45,29.58-4.56,35.53-6.28,10.46-2.28.51-2.53,10.98-3.68,1.5-.11,1.98-1.56-.02-2.14,3.48.13,7.96-.89,11.43.7,10.38-2.58,25.95-4.79,41.08-6.61,15.11-1.85,30.24-3.45,40.22-4.81l-.49.36c6.54-.74,22.71-2.93,39.15-4.72,16.41-1.84,33.1-3.16,39.88-3.19l2.67-2.07c2.91,1.5,5.53.14,9.47,1.33,2.05-.28,1.17-1.74.19-2.13,3.44,1.2,7.14-.44,9.05.71l-.57.69c5.37,2.03,8.47-3.17,14.38-1.04l-.05.36c2.42,1.23,5.22-.73,7.35-1.31,2.96.91.19,2.5,2.64,3.4,1.12-2.2,3.71-.65,6.33-.34.69-.03,1.37-.05,1.96-.07a5.382,5.382,0,0,1-1.96.07c-2.93.12-6.25.47-6.1,2.5,3.6-.07.73,2.2,4.42,1.43l.34-2.48c1.62-.58,4.62.02,4.98,1.12-.46-.4-1.98-.52-3.51-.64-.07,2.31-3.09,19.18-5.9,35.95-2.83,16.76-5.46,33.51-5.68,35.45-2.24,1.45-4.97,1.15-7.79,1.06-2.82-.07-5.72.03-8.22,2.21,1.3.77-3.25.19-1.57,2.05-.86-.75-2.26-.45-3.19-.49,1.44-.65,2.88-1.3,2.98-2.37-6.9-.32-14.36.46-21.28-.05-4.14-.8-5.36,4.16-6.29,4.14l.11-1.78-4.18-.05c.84,1.78.22,4.63,2.02,5.36-.06,1.06-1.4.34-2.8.68.48-.35,1.48-1.77.58-2.13-3.24-.04-1.01,1.41-4.76,2.44.01-.36,2.46-2.82-.73-3.93-3.92-.56-16.8.2-29.85,1.47-12.9,1.23-25.96,2.86-30.37,3.36-.04.08-.09.09-.14.02.05-.01.09-.01.14-.02.46-.69,1.12-6.3,1.55-6.74l-3.77,2.22,2.34,2.06c-2.17,2.03-9.78,4.22-17.49,6.37-7.7,2.13-15.51,4.2-17.9,5.89l1.43-.06c-3.84,1.92-6.69,2.38-11.42,2.91l2.85-1.17c-1.39-2.8-3.78-2.36-6.59-1.9l1.86,1c-2.82,2.96-5.66.93-10.33,1.83l1.88.64c-.94.75-2.34.45-3.74.51,2.33-1.52-1.87-1.7-2.81-3.09,1.87,2.77-2.78,2.98-4.16,3.4-.94-2.09-4.16,1.98-4.63-.13-1.22.69-.25,1.85.29,2.06-3.12-.69-5.43,2.84-10.74,3.87-9.52.59-1.5-1.74-11.75,2.18l-1.39-1.33-.35,2.53c-2.43-4.11-6.28-.22-7.82-4.36-.79,1.86-2.25-.15-4.37,1.82,1.5,2.72,4.07,1.07,5.5,2.73-3.53,1-12.04,2.23-21.3,3.66A449.972,449.972,0,0,0,393,536.33V190.53c-1.26.98-2.59,2.03-3.94,3.12-1.84,1.58-3.74,3.24-5.63,4.93-1.91,1.66-3.7,3.46-5.45,5.18-1.73,1.74-3.42,3.4-4.84,5.05-2.88,3.27-5.2,6.06-6.2,8.01-4.13,6.14,1.47,2.01-3.4,7.37-.71.76.09,1.99,1.54,1.49-1.9,1.49-3.49,4.21-6.46,4.76-3.45,6.65-9.53,15.73-15.06,25.07-1.46,2.28-2.76,4.66-4.1,6.94-.67,1.14-1.33,2.26-1.98,3.37-.61,1.13-1.21,2.23-1.8,3.32-1.17,2.16-2.31,4.21-3.29,6.14-.96,1.95-1.82,3.74-2.56,5.34l-.1-.47a269.656,269.656,0,0,0-10.55,25.19c-2.01,5.28-3.74,10.65-5.3,15.17-1.42,4.57-2.77,8.27-3.52,10.4l1.31,2.36c-2.09,1.3-1.46,3.37-3.46,5.45-.16,1.37,1.41,1.27,1.98.78-1.84,1.78-1.03,4.58-2.51,5.44l-.54-.56c-3.06,2.82,1.48,6.19-1.54,9.34l-.34-.12c-1.57,1.24-.15,3.47.16,4.95-1.28,1.67-2.47-.45-3.66.93,2.01,1.19.19,2.5-.43,4.13-.06.44-.12.88-.18,1.27a2.288,2.288,0,0,1,.18-1.27c.24-1.9.3-4.11-1.71-4.46-.37,2.35-2.23.01-1.93,2.58l2.38.72c.37,1.16-.59,2.97-1.71,3,.44-.22.75-1.18,1.06-2.14-2.26-.5-18.42-5.8-34.38-11.52-15.98-5.68-31.76-11.78-33.61-12.42-.94-2.31-.04-4.64.68-7.08.75-2.44,1.27-5-.13-7.78-1.1.92.69-2.88-1.55-1.95.96-.53,1.06-1.84,1.36-2.63.22,1.45.45,2.88,1.44,3.27,1.1-2.92,1.94-6.06,2.93-9.14a74.439,74.439,0,0,1,3.41-8.94c2.09-3.14-2.04-5.99-1.71-6.77l1.61.76,1.53-3.43c-1.95,0-4.34-1.63-5.67-.39-.96-.46.19-1.32.39-2.63.14.54,1.09,1.93,1.75,1.32,1.21-2.69-.97-1.4-.5-4.95.32.16,1.64,3.16,3.86.98a67.187,67.187,0,0,0,4.43-9.36c.95-2.2,2.01-4.64,3.12-7.2.54-1.28,1.09-2.59,1.65-3.92.59-1.32,1.18-2.65,1.78-3.99,1.18-2.67,2.37-5.34,3.51-7.9,1.19-2.54,2.33-4.97,3.37-7.18.52-1.1,1.01-2.15,1.47-3.13.48-.96.93-1.86,1.34-2.67.78-1.55,1.41-2.8,1.84-3.64q-.06-.12.06-.12l-.06.12c.31.68,4.6,4.16,4.88,4.79l.01-3.91-2.89.54c-.3-1.33.02-3.7.75-6.56.75-2.83,1.87-6.18,3.02-9.55,1.17-3.35,2.49-6.64,3.44-9.49.49-1.42.89-2.71,1.18-3.83a11.754,11.754,0,0,0,.5-2.68l-.77,1.01c.67-3.81,1.96-6.07,4.28-9.67l-.73,2.71c2.98.8,3.96-1.12,5.31-3.3l-1.88.62c-.56-3.81,2.67-4.42,4.82-8.17l-1.61.85c0-1.13,1.07-1.88,1.89-2.87-.14,1.3.46,1.26,1.3.94a6.3,6.3,0,0,1,2.75-.74c-3.24-.62-.46-3.83.12-5.04,2.12.8,1.19-4.1,3.04-2.97.28-1.3-1.21-1.44-1.72-1.22,2.54-1.59,1.54-5.5,4.45-9.75,3.04-3.34,3.62-3.23,3.96-3.51s.47-.92,2.79-5.62l1.89.11-1.43-2.11c2.23.77,3.38-.19,4.5-1.03s2.16-1.62,4.07-.5c-.6-1.89,1.76-1.22,2.09-4.02-2.84-1.21-3.72,1.63-5.85,1.23a76.623,76.623,0,0,1,7.37-8.55c3.51-3.59,7.75-7.78,12.21-11.7,4.37-4.02,8.99-7.73,12.81-10.86,3.87-3.07,7.08-5.4,8.73-6.58-.81,1.07.36,1.96,1.78,1.77.59-.89,1.17-1.8,1.77-2.68-.77-.34-1.44.19-1.51-.66.63-1.35,3.04-.89,1.97-3.19.8,1.17,2.54-.09,2.74.21-.34-2.82,7.05-2.52,5.6-7.07,2.98-3.32,2.62,1.65,6.32-1.28l-1.72-2.72a28.248,28.248,0,0,0,3.37-2.39c1.93-1.42,4.46-3.29,6.92-5.2l3.57-2.81c1.15-.88,2.19-1.71,3.06-2.43,1.74-1.46,2.77-2.5,2.41-2.7a5.387,5.387,0,0,0,3.05,1.08A39.758,39.758,0,0,1,393,85.41M135.87,315.44l-.06-.09q.12,0,.06.09M29.24,180.72a.549.549,0,0,1,.07.09c-.08.01-.1-.02-.07-.09M137.75,160.8a.63.63,0,0,1-.65-.01c.23,0,.45.01.65.01m13.08,197.7c-.01-1.11-.05-2.24-.12-3.36-3.11.62-3.44,3.03-4.19,5.82.56-.43,1.12-.88,1.67-1.36a5.309,5.309,0,0,1-.39,4.91,43.517,43.517,0,0,0-2.78,5.11c.51-.4,1.01-.79,1.52-1.22.15,1.19-.85,2.22-1.58,3.36.02-1.37-.6-1.22-1.41-.77a5.641,5.641,0,0,1-2.65,1.1c3.3.26.8,3.84.23,5.04-1.08-.35-1.33.67-1.59,1.64-.23.97-.57,1.96-1.47,1.37-.37,1.31,1.12,1.49,1.67,1.26-1.35.8-1.83,2.18-2.45,3.92a14.794,14.794,0,0,1-3.45,5.95,17.731,17.731,0,0,1-3.72,2.4,11.915,11.915,0,0,1-1.12.41c-.21.1-.38.31-.96,1-.29.35-.69.81-1.23,1.45-.56.61-1.27,1.36-2.23,2.31l-1.77-.7.62,2.48c-1.87-1.45-3.28-.98-4.61-.65s-2.57.62-3.82-1.19c-.09.98-.61,1.07-1.25,1.2a2.732,2.732,0,0,0-2.14,1.39,2.969,2.969,0,0,0,2.89,1.22c.95-.08,1.88-.34,2.77.28-.47.3-1.06.63-1.75.98-.68.33-1.47.66-2.34,1.01a46.5,46.5,0,0,1-6.22,2.02c-1.17.29-2.4.57-3.68.83-1.27.24-2.59.42-3.93.59a63.006,63.006,0,0,1-8.29.47,65.2,65.2,0,0,1-15.73-2.09,54.3,54.3,0,0,1-6.06-1.9c-1.71-.65-3.05-1.22-3.95-1.65,1.31.16,1.48-1.3.66-2.43-1.03-.07-2.07-.17-3.12-.29.05.83.82,1.19.12,1.64-1.52.07-2.16-2.26-3.78-.3.71-1.2-1.2-2.3-1-2.61-1.22.72-2.57-.71-3.96-1.94-1.4-1.25-2.88-2.42-4.92-1.07-2.17-1.02-1.95-1.79-1.71-2.63s.52-1.77-1.32-3.27L44,392.48c-.01-.14-1.32-1.28-3.1-2.99-1.7-1.73-4.05-4.04-5.99-6.42-.99-1.19-2-2.39-2.87-3.5-.85-1.12-1.64-2.16-2.31-3.04-1.37-1.75-2.24-2.82-2.48-2.49a5.769,5.769,0,0,0,1.44-2.85,24.68,24.68,0,0,1-1.77-2.55c-.51-.88-.96-1.78-1.42-2.7-.44-.92-.89-1.86-1.36-2.82-.44-.95-.89-1.92-1.41-2.91.44.3.54.68,1.14.14a50.585,50.585,0,0,1-2.63-20.72,68.588,68.588,0,0,1,4.95-20.41c.99-2.54,2.91.34,3.76-1.74,1.23-1.08.31-3.21.21-4.6-.49.17-.84.88-1.29.2A6.763,6.763,0,0,0,30.76,311a.037.037,0,0,0-.01-.03c.02,0,.03-.01.05-.02,1.1-1.53,2.2-3.21,4.42-3.22-.75,1.8-2.12,2.71-4.42,3.22a.175.175,0,0,1-.04.05c.55,1.24.82,3.01,2.16,1.2-.47.88-.93,1.78-1.37,2.68,1.59.81.05-.92,1.73-2.58.18-.58.4-1.17.61-1.76l1.52.92c3.96-.62,9.96,1.51,16.67,4.98,3.36,1.71,6.88,3.82,10.52,5.95,3.62,2.14,7.33,4.38,10.93,6.58.48.29.95.58,1.43.87-1.02-16.35-1.59-32.26-1.67-34.16,1.47-3.09,4.33.68,6.4-3.71-.6-.78,1.45-.21.67-2.07.39.75,1.06.48,1.49.53a3.188,3.188,0,0,0-1.35,2.33c3.06.35,6.72-.19,10.23.97,2,1.2,3.46-3.55,4.02-3.4l-.38,1.74,2.29.64c-.09-1.88.87-4.56-.05-5.55.26-1.03.89-.14,1.84-.21-.38.25-1.29,1.46-.82,1.98,1.93.6.9-1.22,3.48-1.51-.13.34-2.2,2.26-.61,3.93a15.077,15.077,0,0,0,2.58,1.13c1.18.48,2.58.94,4.21,1.59.41.16.82.32,1.25.49s.85.33,1.38.56c1,.44,2.04.9,3.09,1.39,1.02.51,2.06,1.05,3.11,1.6,1.02.57,2.04,1.18,3.05,1.8a60.656,60.656,0,0,1,10.67,8.42,52.792,52.792,0,0,1,5.96,7.02,16.018,16.018,0,0,0-2.96,1.04,28.811,28.811,0,0,1-3.38,1.33c1.03.4,2.09.85,3.13,1.33.36-.84.71-1.7,1.03-2.57,2.48.38,7.26,4.97,10.82,11.81.88,1.73,1.69,3.53,2.4,5.34.67,1.86,1.29,3.66,1.77,5.38.47,1.76.89,3.35,1.24,4.68a22.479,22.479,0,0,0,.95,3.21l.16-1.61c1.35,4.61,1.11,8.17-.13,13.21M312.94,81.32a59.74,59.74,0,0,1-1.37,6.16,58.929,58.929,0,0,1-2.02,5.7,50.62,50.62,0,0,1-5.09,9.27c-.45.64-.89,1.27-1.34,1.86s-.87,1.1-1.29,1.61c-.86,1.01-1.68,1.93-2.45,2.74a45.925,45.925,0,0,1-3.69,3.38c.88-1.25-.42-2-1.9-1.64-.59.99-1.19,1.9-1.83,2.84.78.31,1.5-.26,1.56.6-.72,1.46-3.2,1.06-2.24,3.39-.75-1.19-2.63.02-2.81-.31.04,1.45-1.88,1.98-3.63,2.55-1.77.61-3.4,1.3-3.22,3.71-1.9,1.33-2.45.75-3.05.11s-1.25-1.33-3.43-.51l.77,3.12c-.25-.09-6.46,2.08-13.31,2.83-1.74.19-3.41.35-5.1.41-1.67.07-3.23.08-4.55.09-2.73-.03-4.53-.07-4.36.34-.17-.4-.3-.88-.56-1.4a5.244,5.244,0,0,0-.49-.78c-.22-.27-.46-.53-.71-.79-4.63-.15-8.79-1.79-13.42-3.15.56-.1.94.1.92-.72a42.531,42.531,0,0,1-16.58-13,53.959,53.959,0,0,1-8.4-16.11c-.74-2.09,2.43-1.59,1.86-3.32.32-1.38-1.71-1.98-2.62-2.73-.27.4-.11,1.01-.87.9a5,5,0,0,0,.2-2.33c-.01-.01-.02-.02-.03-.02.01-.01.01-.02.03-.04-.15-1.47-.35-3.09,1.32-4.38.57,1.45.1,2.76-1.32,4.38,0,.02-.01.04,0,.06,1.17.38,2.44,1.23,2.38-.61.18.78.36,1.58.57,2.34,1.7-.49-.52-.54-.23-2.49l-.65-1.32,1.74-.38c1.72-1.74,4.83-3.31,8.81-4.71,3.14-6.13,8.51-16.44,14.01-26.62,7.98-14.84,16.26-29.42,17.21-31.12,2.31-2.1,1.74,2.07,4.89-1.1.12-.84.76.25,1.35-1.58-.2.76.23.7.39.86a4.364,4.364,0,0,0-1.78,1.64c1.2,1.16,3.02,1.55,3.97,3.06.27,1.32,3.24-2.6,3.41-2.43l-1.02,1.45.69.75c.87-1.61,2.59-3.84,2.68-4.77.61-.87.44-.03.89-.06-.29.2-1.27,1.19-1.32,1.65.55.61.98-.98,2.24-1.14-.21.28-2.05,1.86-2.13,3.33.34,1.14,2.87,2.88,5.49,4.58,2.58,1.69,5.24,3.38,6.1,4.01.06-.04.07-.04.03.02-.01-.01-.02-.01-.03-.02-.23.17-1.19,1.11-2.2,2.11-.63.61-1.27,1.24-1.75,1.72-.4.38-.69.67-.8.75l1.91-.8,1.15-2.02c1.63-1,4-.88,6.36-.58s4.67.76,6.16.22l-.19-.31a3.066,3.066,0,0,1,3.34.9l-1.17.05c-1.94,2.2-1.39,2.48-.77,2.89l.57-1.12c2.51-1.2,1.27.81,2.38,1.45l.32-.89c.66-.24.56.32.73.65-1.38.35-1.14,1.56-2.13,2.66,1.98-2.22,2.54-1.13,2.99-1.02-1.57,1.5,2.09.13.46,1.55.74.02,1.53-1.05,1.62-1.35-.08.77.66.85,1.63.93a4.9,4.9,0,0,1,3.24,1.22,10.619,10.619,0,0,1,.6,1.29,4.621,4.621,0,0,1,.25.82,6.193,6.193,0,0,1,.04.69c.03.12.16.22.62.52.23.15.54.36.97.65a18.952,18.952,0,0,1,1.68,1.29l-.93,1.41,2.37-.8a3.376,3.376,0,0,0-1.18,3.69c.22,1.06.41,2.11-1.44,3.28,1.88,0,.21,1.71,2.4,2.91,2.45-1.82.38-3.61,1.72-5.1a32.6,32.6,0,0,1,3.76,9.93c.15.66.29,1.29.42,2.02s.26,1.48.37,2.25c.22,1.48.38,3.2.47,4.91a53.362,53.362,0,0,1-.64,11.07" fill="#142dc1"/>
        <path id="Path_144" data-name="Path 144" d="M29.31,180.81c-.08.01-.1-.02-.07-.09a.549.549,0,0,1,.07.09" fill="#142dc1"/>
        <path id="Path_145" data-name="Path 145" d="M30.8,310.95a.175.175,0,0,1-.04.05.037.037,0,0,0-.01-.03c.02,0,.03-.01.05-.02" fill="#142dc1"/>
        <path id="Path_146" data-name="Path 146" d="M30.8,310.95c1.1-1.53,2.2-3.21,4.42-3.22-.75,1.8-2.12,2.71-4.42,3.22" fill="#142dc1"/>
        <path id="Path_147" data-name="Path 147" d="M135.87,315.44l-.06-.09q.12,0,.06.09" fill="#142dc1"/>
        <path id="Path_148" data-name="Path 148" d="M137.1,160.79c.23,0,.45.01.65.01a.63.63,0,0,1-.65-.01" fill="#142dc1"/>
        <path id="Path_149" data-name="Path 149" d="M23.87,360.35a50.585,50.585,0,0,1-2.63-20.72,68.588,68.588,0,0,1,4.95-20.41c.99-2.54,2.91.34,3.76-1.74,1.23-1.08.31-3.21.21-4.6-.49.17-.84.88-1.29.2A6.763,6.763,0,0,0,30.76,311c.55,1.24.82,3.01,2.16,1.2-.47.88-.93,1.78-1.37,2.68,1.59.81.05-.92,1.73-2.58.18-.58.4-1.17.61-1.76l1.52.92c3.96-.62,9.96,1.51,16.67,4.98,3.36,1.71,6.88,3.82,10.52,5.95,3.62,2.14,7.33,4.38,10.93,6.58.48.29.95.58,1.43.87-1.02-16.35-1.59-32.26-1.67-34.16,1.47-3.09,4.33.68,6.4-3.71-.6-.78,1.45-.21.67-2.07.39.75,1.06.48,1.49.53a3.188,3.188,0,0,0-1.35,2.33c3.06.35,6.72-.19,10.23.97,2,1.2,3.46-3.55,4.02-3.4l-.38,1.74,2.29.64c-.09-1.88.87-4.56-.05-5.55.26-1.03.89-.14,1.84-.21-.38.25-1.29,1.46-.82,1.98,1.93.6.9-1.22,3.48-1.51-.13.34-2.2,2.26-.61,3.93a15.077,15.077,0,0,0,2.58,1.13c1.18.48,2.58.94,4.21,1.59.41.16.82.32,1.25.49s.85.33,1.38.56c1,.44,2.04.9,3.09,1.39,1.02.51,2.06,1.05,3.11,1.6,1.02.57,2.04,1.18,3.05,1.8a60.656,60.656,0,0,1,10.67,8.42,52.792,52.792,0,0,1,5.96,7.02,16.018,16.018,0,0,0-2.96,1.04,28.811,28.811,0,0,1-3.38,1.33c1.03.4,2.09.85,3.13,1.33.36-.84.71-1.7,1.03-2.57,2.48.38,7.26,4.97,10.82,11.81.88,1.73,1.69,3.53,2.4,5.34.67,1.86,1.29,3.66,1.77,5.38.47,1.76.89,3.35,1.24,4.68a22.479,22.479,0,0,0,.95,3.21l.16-1.61c1.35,4.61,1.11,8.17-.13,13.21-.01-1.11-.05-2.24-.12-3.36-3.11.62-3.44,3.03-4.19,5.82.56-.43,1.12-.88,1.67-1.36a5.309,5.309,0,0,1-.39,4.91,43.517,43.517,0,0,0-2.78,5.11c.51-.4,1.01-.79,1.52-1.22.15,1.19-.85,2.22-1.58,3.36.02-1.37-.6-1.22-1.41-.77a5.641,5.641,0,0,1-2.65,1.1c3.3.26.8,3.84.23,5.04-1.08-.35-1.33.67-1.59,1.64-.23.97-.57,1.96-1.47,1.37-.37,1.31,1.12,1.49,1.67,1.26-1.35.8-1.83,2.18-2.45,3.92a14.794,14.794,0,0,1-3.45,5.95,17.731,17.731,0,0,1-3.72,2.4,11.915,11.915,0,0,1-1.12.41c-.21.1-.38.31-.96,1-.29.35-.69.81-1.23,1.45-.56.61-1.27,1.36-2.23,2.31l-1.77-.7.62,2.48c-1.87-1.45-3.28-.98-4.61-.65s-2.57.62-3.82-1.19c-.09.98-.61,1.07-1.25,1.2a2.732,2.732,0,0,0-2.14,1.39,2.969,2.969,0,0,0,2.89,1.22c.95-.08,1.88-.34,2.77.28-.47.3-1.06.63-1.75.98-.68.33-1.47.66-2.34,1.01a46.5,46.5,0,0,1-6.22,2.02c-1.17.29-2.4.57-3.68.83-1.27.24-2.59.42-3.93.59a63.006,63.006,0,0,1-8.29.47,65.2,65.2,0,0,1-15.73-2.09,54.3,54.3,0,0,1-6.06-1.9c-1.71-.65-3.05-1.22-3.95-1.65,1.31.16,1.48-1.3.66-2.43-1.03-.07-2.07-.17-3.12-.29.05.83.82,1.19.12,1.64-1.52.07-2.16-2.26-3.78-.3.71-1.2-1.2-2.3-1-2.61-1.22.72-2.57-.71-3.96-1.94-1.4-1.25-2.88-2.42-4.92-1.07-2.17-1.02-1.95-1.79-1.71-2.63s.52-1.77-1.32-3.27L44,392.48c-.01-.14-1.32-1.28-3.1-2.99-1.7-1.73-4.05-4.04-5.99-6.42-.99-1.19-2-2.39-2.87-3.5-.85-1.12-1.64-2.16-2.31-3.04-1.37-1.75-2.24-2.82-2.48-2.49a5.769,5.769,0,0,0,1.44-2.85,24.68,24.68,0,0,1-1.77-2.55c-.51-.88-.96-1.78-1.42-2.7-.44-.92-.89-1.86-1.36-2.82-.44-.95-.89-1.92-1.41-2.91.44.3.54.68,1.14.14" fill="#142dc1"/>
        <path id="Path_150" data-name="Path 150" d="M181.54,533.04c.05-.01.09-.01.14-.02-.04.08-.09.09-.14.02" fill="#142dc1"/>
        <path id="Path_151" data-name="Path 151" d="M207.92,86.08c0,.02-.01.04,0,.06-.01-.01-.02-.02-.03-.02.01-.01.01-.02.03-.04" fill="#142dc1"/>
        <path id="Path_152" data-name="Path 152" d="M207.92,86.08c-.15-1.47-.35-3.09,1.32-4.38.57,1.45.1,2.76-1.32,4.38" fill="#142dc1"/>
        <path id="Path_153" data-name="Path 153" d="M263.4,240.9l-.06.12q-.06-.12.06-.12" fill="#142dc1"/>
        <path id="Path_154" data-name="Path 154" d="M277.64,31.5c-.01-.01-.02-.01-.03-.02.06-.04.07-.04.03.02" fill="#142dc1"/>
        <path id="Path_155" data-name="Path 155" d="M301.33,363.61c-.06.44-.12.88-.18,1.27a2.288,2.288,0,0,1,.18-1.27" fill="#142dc1"/>
        <path id="Path_156" data-name="Path 156" d="M308.47,447.72c.69-.03,1.37-.05,1.96-.07a5.382,5.382,0,0,1-1.96.07" fill="#142dc1"/>
        <path id="Path_157" data-name="Path 157" d="M312.11,450.29c-.46-.4-1.98-.52-3.51-.64-.07,2.31-3.09,19.18-5.9,35.95-2.83,16.76-5.46,33.51-5.68,35.45-2.24,1.45-4.97,1.15-7.79,1.06-2.82-.07-5.72.03-8.22,2.21,1.3.77-3.25.19-1.57,2.05-.86-.75-2.26-.45-3.19-.49,1.44-.65,2.88-1.3,2.98-2.37-6.9-.32-14.36.46-21.28-.05-4.14-.8-5.36,4.16-6.29,4.14l.11-1.78-4.18-.05c.84,1.78.22,4.63,2.02,5.36-.06,1.06-1.4.34-2.8.68.48-.35,1.48-1.77.58-2.13-3.24-.04-1.01,1.41-4.76,2.44.01-.36,2.46-2.82-.73-3.93-3.92-.56-16.8.2-29.85,1.47-12.9,1.23-25.96,2.86-30.37,3.36.46-.69,1.12-6.3,1.55-6.74l-3.77,2.22,2.34,2.06c-2.17,2.03-9.78,4.22-17.49,6.37-7.7,2.13-15.51,4.2-17.9,5.89l1.43-.06c-3.84,1.92-6.69,2.38-11.42,2.91l2.85-1.17c-1.39-2.8-3.78-2.36-6.59-1.9l1.86,1c-2.82,2.96-5.66.93-10.33,1.83l1.88.64c-.94.75-2.34.45-3.74.51,2.33-1.52-1.87-1.7-2.81-3.09,1.87,2.77-2.78,2.98-4.16,3.4-.94-2.09-4.16,1.98-4.63-.13-1.22.69-.25,1.85.29,2.06-3.12-.69-5.43,2.84-10.74,3.87-9.52.59-1.5-1.74-11.75,2.18l-1.39-1.33-.35,2.53c-2.43-4.11-6.28-.22-7.82-4.36-.79,1.86-2.25-.15-4.37,1.82,1.5,2.72,4.07,1.07,5.5,2.73-3.53,1-12.04,2.23-21.3,3.66A448.942,448.942,0,0,1,0,536.33V487a17.345,17.345,0,0,0,3.66-2.36c5.93-.85,20.75-3.77,35.59-6.15,14.83-2.45,29.58-4.56,35.53-6.28,10.46-2.28.51-2.53,10.98-3.68,1.5-.11,1.98-1.56-.02-2.14,3.48.13,7.96-.89,11.43.7,10.38-2.58,25.95-4.79,41.08-6.61,15.11-1.85,30.24-3.45,40.22-4.81l-.49.36c6.54-.74,22.71-2.93,39.15-4.72,16.41-1.84,33.1-3.16,39.88-3.19l2.67-2.07c2.91,1.5,5.53.14,9.47,1.33,2.05-.28,1.17-1.74.19-2.13,3.44,1.2,7.14-.44,9.05.71l-.57.69c5.37,2.03,8.47-3.17,14.38-1.04l-.05.36c2.42,1.23,5.22-.73,7.35-1.31,2.96.91.19,2.5,2.64,3.4,1.12-2.2,3.71-.65,6.33-.34-2.93.12-6.25.47-6.1,2.5,3.6-.07.73,2.2,4.42,1.43l.34-2.48c1.62-.58,4.62.02,4.98,1.12" fill="#142dc1"/>
        <path id="Path_158" data-name="Path 158" d="M207.72,88.47a5,5,0,0,0,.2-2.33c1.17.38,2.44,1.23,2.38-.61.18.78.36,1.58.57,2.34,1.7-.49-.52-.54-.23-2.49l-.65-1.32,1.74-.38c1.72-1.74,4.83-3.31,8.81-4.71,3.14-6.13,8.51-16.44,14.01-26.62,7.98-14.84,16.26-29.42,17.21-31.12,2.31-2.1,1.74,2.07,4.89-1.1.12-.84.76.25,1.35-1.58-.2.76.23.7.39.86a4.364,4.364,0,0,0-1.78,1.64c1.2,1.16,3.02,1.55,3.97,3.06.27,1.32,3.24-2.6,3.41-2.43l-1.02,1.45.69.75c.87-1.61,2.59-3.84,2.68-4.77.61-.87.44-.03.89-.06-.29.2-1.27,1.19-1.32,1.65.55.61.98-.98,2.24-1.14-.21.28-2.05,1.86-2.13,3.33.34,1.14,2.87,2.88,5.49,4.58,2.58,1.69,5.24,3.38,6.1,4.01-.23.17-1.19,1.11-2.2,2.11-.63.61-1.27,1.24-1.75,1.72-.4.38-.69.67-.8.75l1.91-.8,1.15-2.02c1.63-1,4-.88,6.36-.58s4.67.76,6.16.22l-.19-.31a3.066,3.066,0,0,1,3.34.9l-1.17.05c-1.94,2.2-1.39,2.48-.77,2.89l.57-1.12c2.51-1.2,1.27.81,2.38,1.45l.32-.89c.66-.24.56.32.73.65-1.38.35-1.14,1.56-2.13,2.66,1.98-2.22,2.54-1.13,2.99-1.02-1.57,1.5,2.09.13.46,1.55.74.02,1.53-1.05,1.62-1.35-.08.77.66.85,1.63.93a4.9,4.9,0,0,1,3.24,1.22,10.619,10.619,0,0,1,.6,1.29,4.621,4.621,0,0,1,.25.82,6.193,6.193,0,0,1,.04.69c.03.12.16.22.62.52.23.15.54.36.97.65a18.952,18.952,0,0,1,1.68,1.29l-.93,1.41,2.37-.8a3.376,3.376,0,0,0-1.18,3.69c.22,1.06.41,2.11-1.44,3.28,1.88,0,.21,1.71,2.4,2.91,2.45-1.82.38-3.61,1.72-5.1a32.6,32.6,0,0,1,3.76,9.93c.15.66.29,1.29.42,2.02s.26,1.48.37,2.25c.22,1.48.38,3.2.47,4.91a53.362,53.362,0,0,1-.64,11.07,59.74,59.74,0,0,1-1.37,6.16,58.929,58.929,0,0,1-2.02,5.7,50.62,50.62,0,0,1-5.09,9.27c-.45.64-.89,1.27-1.34,1.86s-.87,1.1-1.29,1.61c-.86,1.01-1.68,1.93-2.45,2.74a45.925,45.925,0,0,1-3.69,3.38c.88-1.25-.42-2-1.9-1.64-.59.99-1.19,1.9-1.83,2.84.78.31,1.5-.26,1.56.6-.72,1.46-3.2,1.06-2.24,3.39-.75-1.19-2.63.02-2.81-.31.04,1.45-1.88,1.98-3.63,2.55-1.77.61-3.4,1.3-3.22,3.71-1.9,1.33-2.45.75-3.05.11s-1.25-1.33-3.43-.51l.77,3.12c-.25-.09-6.46,2.08-13.31,2.83-1.74.19-3.41.35-5.1.41-1.67.07-3.23.08-4.55.09-2.73-.03-4.53-.07-4.36.34-.17-.4-.3-.88-.56-1.4a5.244,5.244,0,0,0-.49-.78c-.22-.27-.46-.53-.71-.79-4.63-.15-8.79-1.79-13.42-3.15.56-.1.94.1.92-.72a42.531,42.531,0,0,1-16.58-13,53.959,53.959,0,0,1-8.4-16.11c-.74-2.09,2.43-1.59,1.86-3.32.32-1.38-1.71-1.98-2.62-2.73-.27.4-.11,1.01-.87.9" fill="#142dc1"/>
        <path id="Path_159" data-name="Path 159" d="M393,85.41V190.53c-1.26.98-2.59,2.03-3.94,3.12-1.84,1.58-3.74,3.24-5.63,4.93-1.91,1.66-3.7,3.46-5.45,5.18-1.73,1.74-3.42,3.4-4.84,5.05-2.88,3.27-5.2,6.06-6.2,8.01-4.13,6.14,1.47,2.01-3.4,7.37-.71.76.09,1.99,1.54,1.49-1.9,1.49-3.49,4.21-6.46,4.76-3.45,6.65-9.53,15.73-15.06,25.07-1.46,2.28-2.76,4.66-4.1,6.94-.67,1.14-1.33,2.26-1.98,3.37-.61,1.13-1.21,2.23-1.8,3.32-1.17,2.16-2.31,4.21-3.29,6.14-.96,1.95-1.82,3.74-2.56,5.34l-.1-.47a269.656,269.656,0,0,0-10.55,25.19c-2.01,5.28-3.74,10.65-5.3,15.17-1.42,4.57-2.77,8.27-3.52,10.4l1.31,2.36c-2.09,1.3-1.46,3.37-3.46,5.45-.16,1.37,1.41,1.27,1.98.78-1.84,1.78-1.03,4.58-2.51,5.44l-.54-.56c-3.06,2.82,1.48,6.19-1.54,9.34l-.34-.12c-1.57,1.24-.15,3.47.16,4.95-1.28,1.67-2.47-.45-3.66.93,2.01,1.19.19,2.5-.43,4.13.24-1.9.3-4.11-1.71-4.46-.37,2.35-2.23.01-1.93,2.58l2.38.72c.37,1.16-.59,2.97-1.71,3,.44-.22.75-1.18,1.06-2.14-2.26-.5-18.42-5.8-34.38-11.52-15.98-5.68-31.76-11.78-33.61-12.42-.94-2.31-.04-4.64.68-7.08.75-2.44,1.27-5-.13-7.78-1.1.92.69-2.88-1.55-1.95.96-.53,1.06-1.84,1.36-2.63.22,1.45.45,2.88,1.44,3.27,1.1-2.92,1.94-6.06,2.93-9.14a74.439,74.439,0,0,1,3.41-8.94c2.09-3.14-2.04-5.99-1.71-6.77l1.61.76,1.53-3.43c-1.95,0-4.34-1.63-5.67-.39-.96-.46.19-1.32.39-2.63.14.54,1.09,1.93,1.75,1.32,1.21-2.69-.97-1.4-.5-4.95.32.16,1.64,3.16,3.86.98a67.187,67.187,0,0,0,4.43-9.36c.95-2.2,2.01-4.64,3.12-7.2.54-1.28,1.09-2.59,1.65-3.92.59-1.32,1.18-2.65,1.78-3.99,1.18-2.67,2.37-5.34,3.51-7.9,1.19-2.54,2.33-4.97,3.37-7.18.52-1.1,1.01-2.15,1.47-3.13.48-.96.93-1.86,1.34-2.67.78-1.55,1.41-2.8,1.84-3.64.31.68,4.6,4.16,4.88,4.79l.01-3.91-2.89.54c-.3-1.33.02-3.7.75-6.56.75-2.83,1.87-6.18,3.02-9.55,1.17-3.35,2.49-6.64,3.44-9.49.49-1.42.89-2.71,1.18-3.83a11.754,11.754,0,0,0,.5-2.68l-.77,1.01c.67-3.81,1.96-6.07,4.28-9.67l-.73,2.71c2.98.8,3.96-1.12,5.31-3.3l-1.88.62c-.56-3.81,2.67-4.42,4.82-8.17l-1.61.85c0-1.13,1.07-1.88,1.89-2.87-.14,1.3.46,1.26,1.3.94a6.3,6.3,0,0,1,2.75-.74c-3.24-.62-.46-3.83.12-5.04,2.12.8,1.19-4.1,3.04-2.97.28-1.3-1.21-1.44-1.72-1.22,2.54-1.59,1.54-5.5,4.45-9.75,3.04-3.34,3.62-3.23,3.96-3.51s.47-.92,2.79-5.62l1.89.11-1.43-2.11c2.23.77,3.38-.19,4.5-1.03s2.16-1.62,4.07-.5c-.6-1.89,1.76-1.22,2.09-4.02-2.84-1.21-3.72,1.63-5.85,1.23a76.623,76.623,0,0,1,7.37-8.55c3.51-3.59,7.75-7.78,12.21-11.7,4.37-4.02,8.99-7.73,12.81-10.86,3.87-3.07,7.08-5.4,8.73-6.58-.81,1.07.36,1.96,1.78,1.77.59-.89,1.17-1.8,1.77-2.68-.77-.34-1.44.19-1.51-.66.63-1.35,3.04-.89,1.97-3.19.8,1.17,2.54-.09,2.74.21-.34-2.82,7.05-2.52,5.6-7.07,2.98-3.32,2.62,1.65,6.32-1.28l-1.72-2.72a28.248,28.248,0,0,0,3.37-2.39c1.93-1.42,4.46-3.29,6.92-5.2l3.57-2.81c1.15-.88,2.19-1.71,3.06-2.43,1.74-1.46,2.77-2.5,2.41-2.7a5.387,5.387,0,0,0,3.05,1.08A39.758,39.758,0,0,1,393,85.41" fill="#142dc1"/>
        <path id="Path_160" data-name="Path 160" d="M301.33,363.61c-.06.44-.12.88-.18,1.27a2.288,2.288,0,0,1,.18-1.27" fill="#e64436"/>
        <path id="Path_161" data-name="Path 161" d="M263.4,240.9l-.06.12q-.06-.12.06-.12" fill="#e64436"/>
        <path id="Path_162" data-name="Path 162" d="M393,85.41V190.53c-1.26.98-2.59,2.03-3.94,3.12-1.84,1.58-3.74,3.24-5.63,4.93-1.91,1.66-3.7,3.46-5.45,5.18-1.73,1.74-3.42,3.4-4.84,5.05-2.88,3.27-5.2,6.06-6.2,8.01-4.13,6.14,1.47,2.01-3.4,7.37-.71.76.09,1.99,1.54,1.49-1.9,1.49-3.49,4.21-6.46,4.76-3.45,6.65-9.53,15.73-15.06,25.07-1.46,2.28-2.76,4.66-4.1,6.94-.67,1.14-1.33,2.26-1.98,3.37-.61,1.13-1.21,2.23-1.8,3.32-1.17,2.16-2.31,4.21-3.29,6.14-.96,1.95-1.82,3.74-2.56,5.34l-.1-.47a269.656,269.656,0,0,0-10.55,25.19c-2.01,5.28-3.74,10.65-5.3,15.17-1.42,4.57-2.77,8.27-3.52,10.4l1.31,2.36c-2.09,1.3-1.46,3.37-3.46,5.45-.16,1.37,1.41,1.27,1.98.78-1.84,1.78-1.03,4.58-2.51,5.44l-.54-.56c-3.06,2.82,1.48,6.19-1.54,9.34l-.34-.12c-1.57,1.24-.15,3.47.16,4.95-1.28,1.67-2.47-.45-3.66.93,2.01,1.19.19,2.5-.43,4.13.24-1.9.3-4.11-1.71-4.46-.37,2.35-2.23.01-1.93,2.58l2.38.72c.37,1.16-.59,2.97-1.71,3,.44-.22.75-1.18,1.06-2.14-2.26-.5-18.42-5.8-34.38-11.52-15.98-5.68-31.76-11.78-33.61-12.42-.94-2.31-.04-4.64.68-7.08.75-2.44,1.27-5-.13-7.78-1.1.92.69-2.88-1.55-1.95.96-.53,1.06-1.84,1.36-2.63.22,1.45.45,2.88,1.44,3.27,1.1-2.92,1.94-6.06,2.93-9.14a74.439,74.439,0,0,1,3.41-8.94c2.09-3.14-2.04-5.99-1.71-6.77l1.61.76,1.53-3.43c-1.95,0-4.34-1.63-5.67-.39-.96-.46.19-1.32.39-2.63.14.54,1.09,1.93,1.75,1.32,1.21-2.69-.97-1.4-.5-4.95.32.16,1.64,3.16,3.86.98a67.187,67.187,0,0,0,4.43-9.36c.95-2.2,2.01-4.64,3.12-7.2.54-1.28,1.09-2.59,1.65-3.92.59-1.32,1.18-2.65,1.78-3.99,1.18-2.67,2.37-5.34,3.51-7.9,1.19-2.54,2.33-4.97,3.37-7.18.52-1.1,1.01-2.15,1.47-3.13.48-.96.93-1.86,1.34-2.67.78-1.55,1.41-2.8,1.84-3.64.31.68,4.6,4.16,4.88,4.79l.01-3.91-2.89.54c-.3-1.33.02-3.7.75-6.56.75-2.83,1.87-6.18,3.02-9.55,1.17-3.35,2.49-6.64,3.44-9.49.49-1.42.89-2.71,1.18-3.83a11.754,11.754,0,0,0,.5-2.68l-.77,1.01c.67-3.81,1.96-6.07,4.28-9.67l-.73,2.71c2.98.8,3.96-1.12,5.31-3.3l-1.88.62c-.56-3.81,2.67-4.42,4.82-8.17l-1.61.85c0-1.13,1.07-1.88,1.89-2.87-.14,1.3.46,1.26,1.3.94a6.3,6.3,0,0,1,2.75-.74c-3.24-.62-.46-3.83.12-5.04,2.12.8,1.19-4.1,3.04-2.97.28-1.3-1.21-1.44-1.72-1.22,2.54-1.59,1.54-5.5,4.45-9.75,3.04-3.34,3.62-3.23,3.96-3.51s.47-.92,2.79-5.62l1.89.11-1.43-2.11c2.23.77,3.38-.19,4.5-1.03s2.16-1.62,4.07-.5c-.6-1.89,1.76-1.22,2.09-4.02-2.84-1.21-3.72,1.63-5.85,1.23a76.623,76.623,0,0,1,7.37-8.55c3.51-3.59,7.75-7.78,12.21-11.7,4.37-4.02,8.99-7.73,12.81-10.86,3.87-3.07,7.08-5.4,8.73-6.58-.81,1.07.36,1.96,1.78,1.77.59-.89,1.17-1.8,1.77-2.68-.77-.34-1.44.19-1.51-.66.63-1.35,3.04-.89,1.97-3.19.8,1.17,2.54-.09,2.74.21-.34-2.82,7.05-2.52,5.6-7.07,2.98-3.32,2.62,1.65,6.32-1.28l-1.72-2.72a28.248,28.248,0,0,0,3.37-2.39c1.93-1.42,4.46-3.29,6.92-5.2l3.57-2.81c1.15-.88,2.19-1.71,3.06-2.43,1.74-1.46,2.77-2.5,2.41-2.7a5.387,5.387,0,0,0,3.05,1.08A39.758,39.758,0,0,1,393,85.41" fill="#e64436"/>
        <path id="Path_163" data-name="Path 163" d="M310.43,447.65a5.382,5.382,0,0,1-1.96.07c.69-.03,1.37-.05,1.96-.07" fill="#e64436"/>
        <path id="Path_164" data-name="Path 164" d="M181.68,533.02c-.04.08-.09.09-.14.02.05-.01.09-.01.14-.02" fill="#e64436"/>
        <path id="Path_165" data-name="Path 165" d="M312.11,450.29c-.46-.4-1.98-.52-3.51-.64-.07,2.31-3.09,19.18-5.9,35.95-2.83,16.76-5.46,33.51-5.68,35.45-2.24,1.45-4.97,1.15-7.79,1.06-2.82-.07-5.72.03-8.22,2.21,1.3.77-3.25.19-1.57,2.05-.86-.75-2.26-.45-3.19-.49,1.44-.65,2.88-1.3,2.98-2.37-6.9-.32-14.36.46-21.28-.05-4.14-.8-5.36,4.16-6.29,4.14l.11-1.78-4.18-.05c.84,1.78.22,4.63,2.02,5.36-.06,1.06-1.4.34-2.8.68.48-.35,1.48-1.77.58-2.13-3.24-.04-1.01,1.41-4.76,2.44.01-.36,2.46-2.82-.73-3.93-3.92-.56-16.8.2-29.85,1.47-12.9,1.23-25.96,2.86-30.37,3.36.46-.69,1.12-6.3,1.55-6.74l-3.77,2.22,2.34,2.06c-2.17,2.03-9.78,4.22-17.49,6.37-7.7,2.13-15.51,4.2-17.9,5.89l1.43-.06c-3.84,1.92-6.69,2.38-11.42,2.91l2.85-1.17c-1.39-2.8-3.78-2.36-6.59-1.9l1.86,1c-2.82,2.96-5.66.93-10.33,1.83l1.88.64c-.94.75-2.34.45-3.74.51,2.33-1.52-1.87-1.7-2.81-3.09,1.87,2.77-2.78,2.98-4.16,3.4-.94-2.09-4.16,1.98-4.63-.13-1.22.69-.25,1.85.29,2.06-3.12-.69-5.43,2.84-10.74,3.87-9.52.59-1.5-1.74-11.75,2.18l-1.39-1.33-.35,2.53c-2.43-4.11-6.28-.22-7.82-4.36-.79,1.86-2.25-.15-4.37,1.82,1.5,2.72,4.07,1.07,5.5,2.73-3.53,1-12.04,2.23-21.3,3.66A448.942,448.942,0,0,1,0,536.33V487a17.345,17.345,0,0,0,3.66-2.36c5.93-.85,20.75-3.77,35.59-6.15,14.83-2.45,29.58-4.56,35.53-6.28,10.46-2.28.51-2.53,10.98-3.68,1.5-.11,1.98-1.56-.02-2.14,3.48.13,7.96-.89,11.43.7,10.38-2.58,25.95-4.79,41.08-6.61,15.11-1.85,30.24-3.45,40.22-4.81l-.49.36c6.54-.74,22.71-2.93,39.15-4.72,16.41-1.84,33.1-3.16,39.88-3.19l2.67-2.07c2.91,1.5,5.53.14,9.47,1.33,2.05-.28,1.17-1.74.19-2.13,3.44,1.2,7.14-.44,9.05.71l-.57.69c5.37,2.03,8.47-3.17,14.38-1.04l-.05.36c2.42,1.23,5.22-.73,7.35-1.31,2.96.91.19,2.5,2.64,3.4,1.12-2.2,3.71-.65,6.33-.34-2.93.12-6.25.47-6.1,2.5,3.6-.07.73,2.2,4.42,1.43l.34-2.48c1.62-.58,4.62.02,4.98,1.12" fill="#e64436"/>
        <path id="Path_166" data-name="Path 166" d="M137.75,160.8a.63.63,0,0,1-.65-.01c.23,0,.45.01.65.01" fill="#e64436"/>
        <path id="Path_167" data-name="Path 167" d="M29.31,180.81c-.08.01-.1-.02-.07-.09a.549.549,0,0,1,.07.09" fill="#e64436"/>
        <path id="Path_168" data-name="Path 168" d="M35.22,307.73c-.75,1.8-2.12,2.71-4.42,3.22,1.1-1.53,2.2-3.21,4.42-3.22" fill="#e64436"/>
        <path id="Path_169" data-name="Path 169" d="M30.8,310.95a.175.175,0,0,1-.04.05.037.037,0,0,0-.01-.03c.02,0,.03-.01.05-.02" fill="#e64436"/>
        <path id="Path_170" data-name="Path 170" d="M77.638,369.3l.365-.163a.271.271,0,0,0-.365.163" fill="#e64436"/>
        <path id="Path_171" data-name="Path 171" d="M135.87,315.44l-.06-.09q.12,0,.06.09" fill="#e64436"/>
        <path id="Path_172" data-name="Path 172" d="M150.83,358.5c-.01-1.11-.05-2.24-.12-3.36-3.11.62-3.44,3.03-4.19,5.82.56-.43,1.12-.88,1.67-1.36a5.309,5.309,0,0,1-.39,4.91,43.517,43.517,0,0,0-2.78,5.11c.51-.4,1.01-.79,1.52-1.22.15,1.19-.85,2.22-1.58,3.36.02-1.37-.6-1.22-1.41-.77a5.641,5.641,0,0,1-2.65,1.1c3.3.26.8,3.84.23,5.04-1.08-.35-1.33.67-1.59,1.64-.23.97-.57,1.96-1.47,1.37-.37,1.31,1.12,1.49,1.67,1.26-1.35.8-1.83,2.18-2.45,3.92a14.794,14.794,0,0,1-3.45,5.95,17.731,17.731,0,0,1-3.72,2.4,11.915,11.915,0,0,1-1.12.41c-.21.1-.38.31-.96,1-.29.35-.69.81-1.23,1.45-.56.61-1.27,1.36-2.23,2.31l-1.77-.7.62,2.48c-1.87-1.45-3.28-.98-4.61-.65s-2.57.62-3.82-1.19c-.09.98-.61,1.07-1.25,1.2a2.732,2.732,0,0,0-2.14,1.39,2.969,2.969,0,0,0,2.89,1.22c.95-.08,1.88-.34,2.77.28-.47.3-1.06.63-1.75.98-.68.33-1.47.66-2.34,1.01a46.5,46.5,0,0,1-6.22,2.02c-1.17.29-2.4.57-3.68.83-1.27.24-2.59.42-3.93.59a63.006,63.006,0,0,1-8.29.47,65.2,65.2,0,0,1-15.73-2.09,54.3,54.3,0,0,1-6.06-1.9c-1.71-.65-3.05-1.22-3.95-1.65,1.31.16,1.48-1.3.66-2.43-1.03-.07-2.07-.17-3.12-.29.05.83.82,1.19.12,1.64-1.52.07-2.16-2.26-3.78-.3.71-1.2-1.2-2.3-1-2.61-1.22.72-2.57-.71-3.96-1.94-1.4-1.25-2.88-2.42-4.92-1.07-2.17-1.02-1.95-1.79-1.71-2.63s.52-1.77-1.32-3.27L44,392.48c-.01-.14-1.32-1.28-3.1-2.99-1.7-1.73-4.05-4.04-5.99-6.42-.99-1.19-2-2.39-2.87-3.5-.85-1.12-1.64-2.16-2.31-3.04-1.37-1.75-2.24-2.82-2.48-2.49a5.769,5.769,0,0,0,1.44-2.85,24.68,24.68,0,0,1-1.77-2.55c-.51-.88-.96-1.78-1.42-2.7-.44-.92-.89-1.86-1.36-2.82-.44-.95-.89-1.92-1.41-2.91.44.3.54.68,1.14.14a50.585,50.585,0,0,1-2.63-20.72,68.588,68.588,0,0,1,4.95-20.41c.99-2.54,2.91.34,3.76-1.74,1.23-1.08.31-3.21.21-4.6-.49.17-.84.88-1.29.2A6.763,6.763,0,0,0,30.76,311c.55,1.24.82,3.01,2.16,1.2-.47.88-.93,1.78-1.37,2.68,1.59.81.05-.92,1.73-2.58.18-.58.4-1.17.61-1.76l1.52.92c3.96-.62,9.96,1.51,16.67,4.98,3.36,1.71,6.88,3.82,10.52,5.95,3.62,2.14,7.33,4.38,10.93,6.58.48.29.95.58,1.43.87-1.02-16.35-1.59-32.26-1.67-34.16,1.47-3.09,4.33.68,6.4-3.71-.6-.78,1.45-.21.67-2.07.39.75,1.06.48,1.49.53a3.188,3.188,0,0,0-1.35,2.33c3.06.35,6.72-.19,10.23.97,2,1.2,3.46-3.55,4.02-3.4l-.38,1.74,2.29.64c-.09-1.88.87-4.56-.05-5.55.26-1.03.89-.14,1.84-.21-.38.25-1.29,1.46-.82,1.98,1.93.6.9-1.22,3.48-1.51-.13.34-2.2,2.26-.61,3.93a15.077,15.077,0,0,0,2.58,1.13c1.18.48,2.58.94,4.21,1.59.41.16.82.32,1.25.49s.85.33,1.38.56c1,.44,2.04.9,3.09,1.39,1.02.51,2.06,1.05,3.11,1.6,1.02.57,2.04,1.18,3.05,1.8a60.656,60.656,0,0,1,10.67,8.42,52.792,52.792,0,0,1,5.96,7.02,16.018,16.018,0,0,0-2.96,1.04,28.811,28.811,0,0,1-3.38,1.33c1.03.4,2.09.85,3.13,1.33.36-.84.71-1.7,1.03-2.57,2.48.38,7.26,4.97,10.82,11.81.88,1.73,1.69,3.53,2.4,5.34.67,1.86,1.29,3.66,1.77,5.38.47,1.76.89,3.35,1.24,4.68a22.479,22.479,0,0,0,.95,3.21l.16-1.61c1.35,4.61,1.11,8.17-.13,13.21" fill="#e64436"/>
        <path id="Path_173" data-name="Path 173" d="M207.92,86.08c-.15-1.47-.35-3.09,1.32-4.38.57,1.45.1,2.76-1.32,4.38" fill="#e64436"/>
        <path id="Path_174" data-name="Path 174" d="M207.92,86.08c0,.02-.01.04,0,.06-.01-.01-.02-.02-.03-.02.01-.01.01-.02.03-.04" fill="#e64436"/>
        <path id="Path_175" data-name="Path 175" d="M216.788,86.1l.162-.051c-.011-.071-.045-.1-.162.051" fill="#e64436"/>
        <path id="Path_176" data-name="Path 176" d="M277.64,31.5c-.01-.01-.02-.01-.03-.02.06-.04.07-.04.03.02" fill="#e64436"/>
        <path id="Path_177" data-name="Path 177" d="M312.94,81.32a59.74,59.74,0,0,1-1.37,6.16,58.929,58.929,0,0,1-2.02,5.7,50.62,50.62,0,0,1-5.09,9.27c-.45.64-.89,1.27-1.34,1.86s-.87,1.1-1.29,1.61c-.86,1.01-1.68,1.93-2.45,2.74a45.925,45.925,0,0,1-3.69,3.38c.88-1.25-.42-2-1.9-1.64-.59.99-1.19,1.9-1.83,2.84.78.31,1.5-.26,1.56.6-.72,1.46-3.2,1.06-2.24,3.39-.75-1.19-2.63.02-2.81-.31.04,1.45-1.88,1.98-3.63,2.55-1.77.61-3.4,1.3-3.22,3.71-1.9,1.33-2.45.75-3.05.11s-1.25-1.33-3.43-.51l.77,3.12c-.25-.09-6.46,2.08-13.31,2.83-1.74.19-3.41.35-5.1.41-1.67.07-3.23.08-4.55.09-2.73-.03-4.53-.07-4.36.34-.17-.4-.3-.88-.56-1.4a5.244,5.244,0,0,0-.49-.78c-.22-.27-.46-.53-.71-.79-4.63-.15-8.79-1.79-13.42-3.15.56-.1.94.1.92-.72a42.531,42.531,0,0,1-16.58-13,53.959,53.959,0,0,1-8.4-16.11c-.74-2.09,2.43-1.59,1.86-3.32.32-1.38-1.71-1.98-2.62-2.73-.27.4-.11,1.01-.87.9a5,5,0,0,0,.2-2.33c1.17.38,2.44,1.23,2.38-.61.18.78.36,1.58.57,2.34,1.7-.49-.52-.54-.23-2.49l-.65-1.32,1.74-.38c1.72-1.74,4.83-3.31,8.81-4.71,3.14-6.13,8.51-16.44,14.01-26.62,7.98-14.84,16.26-29.42,17.21-31.12,2.31-2.1,1.74,2.07,4.89-1.1.12-.84.76.25,1.35-1.58-.2.76.23.7.39.86a4.364,4.364,0,0,0-1.78,1.64c1.2,1.16,3.02,1.55,3.97,3.06.27,1.32,3.24-2.6,3.41-2.43l-1.02,1.45.69.75c.87-1.61,2.59-3.84,2.68-4.77.61-.87.44-.03.89-.06-.29.2-1.27,1.19-1.32,1.65.55.61.98-.98,2.24-1.14-.21.28-2.05,1.86-2.13,3.33.34,1.14,2.87,2.88,5.49,4.58,2.58,1.69,5.24,3.38,6.1,4.01-.23.17-1.19,1.11-2.2,2.11-.63.61-1.27,1.24-1.75,1.72-.4.38-.69.67-.8.75l1.91-.8,1.15-2.02c1.63-1,4-.88,6.36-.58s4.67.76,6.16.22l-.19-.31a3.066,3.066,0,0,1,3.34.9l-1.17.05c-1.94,2.2-1.39,2.48-.77,2.89l.57-1.12c2.51-1.2,1.27.81,2.38,1.45l.32-.89c.66-.24.56.32.73.65-1.38.35-1.14,1.56-2.13,2.66,1.98-2.22,2.54-1.13,2.99-1.02-1.57,1.5,2.09.13.46,1.55.74.02,1.53-1.05,1.62-1.35-.08.77.66.85,1.63.93a4.9,4.9,0,0,1,3.24,1.22,10.619,10.619,0,0,1,.6,1.29,4.621,4.621,0,0,1,.25.82,6.193,6.193,0,0,1,.04.69c.03.12.16.22.62.52.23.15.54.36.97.65a18.952,18.952,0,0,1,1.68,1.29l-.93,1.41,2.37-.8a3.376,3.376,0,0,0-1.18,3.69c.22,1.06.41,2.11-1.44,3.28,1.88,0,.21,1.71,2.4,2.91,2.45-1.82.38-3.61,1.72-5.1a32.6,32.6,0,0,1,3.76,9.93c.15.66.29,1.29.42,2.02s.26,1.48.37,2.25c.22,1.48.38,3.2.47,4.91a53.362,53.362,0,0,1-.64,11.07" fill="#e64436"/>
      </g>
    </g>
    <g id="Mask_Group_1" data-name="Mask Group 1" transform="translate(960 -951)" clip-path="url(#clip-path-2)">
      <g id="Group_110" data-name="Group 110" transform="translate(517.974 -337.918)">
        <g id="Group_108" data-name="Group 108" transform="translate(-1270.474 1685.918)" style="mix-blend-mode: normal;isolation: isolate">
          <g id="Group_106" data-name="Group 106" clip-path="url(#clip-path-3)">
            <g id="Group_105" data-name="Group 105">
              <g id="Group_104" data-name="Group 104" clip-path="url(#clip-path-3)">
                <path id="Path_63" data-name="Path 63" d="M75.487,50.956a24.677,24.677,0,0,1-1.464,2.2c-1.234,1.728-2.972,4.063-4.441,6.173a34,34,0,0,0-2.389,3.858c-.276-.135-4.291.68-6.571-1.363-2.24-2.014-4.555-3.9-5.138-3.588-1.585,2.082-7.145,7.436-9.5,8.7a27.118,27.118,0,0,1-7.737,7.2c-1.05,2.176-4.016,4.345-6.341,6.492a5,5,0,0,1-4.057,1.068,9.28,9.28,0,0,1-4.613-1.782,1.411,1.411,0,0,1-.207-.558,4.534,4.534,0,0,1,.228-1.9c.041-.141.091-.292.141-.444s.112-.319.172-.487c.12-.309.251-.628.4-.967.017-.039.035-.077.054-.12.153-.338.317-.691.5-1.054.093-.195.195-.394.3-.591s.212-.407.326-.614c.145-.265.295-.541.454-.815q.4-.716.863-1.468c.071-.12.145-.247.224-.371q.243-.392.494-.786c1.282-2.018,2.939-4.327,4.816-6.743.008,0,.015,0,.01-.01,8.178-10.51,20.7-23.116,26.18-23.3A8.335,8.335,0,0,1,62.383,41,69.1,69.1,0,0,1,72.2,47.762a23.536,23.536,0,0,1,3.283,3.194" transform="translate(24.704 42.621)" fill="#d4a67a"/>
                <path id="Path_64" data-name="Path 64" d="M28.659,54.606a2.136,2.136,0,0,0-1.473-.433c-2.757,4.335-4.434,7.958-4.157,9.614.091-.023.178-.05.268-.081,2.294-.813,4.754-1.89,5.818-4.074.641-1.313.873-3.974-.456-5.026" transform="translate(24.705 58.184)" fill="#f6e2ca"/>
                <g id="Group_64" data-name="Group 64" transform="translate(56.715 82.3)" style="mix-blend-mode: multiply;isolation: isolate">
                  <g id="Group_63" data-name="Group 63">
                    <g id="Group_62" data-name="Group 62" clip-path="url(#clip-path-5)">
                      <path id="Path_65" data-name="Path 65" d="M70.82,50.956a24.676,24.676,0,0,1-1.464,2.2c-.917.72-1.811,1.439-2.624,2.122a30.128,30.128,0,0,0-2.891,2.678c-.268-.251-5.111-.647-7.035-3.744-1.883-3.03-3.874-5.938-4.659-5.789-2.489,1.848-8.769,6.851-11.881,7.508-3.018,2.618-7.365,4.43-11.2,5.629a9.035,9.035,0,0,1-1.719,1.423c8.178-10.51,20.7-23.116,26.18-23.3A8.336,8.336,0,0,1,57.716,41a69.1,69.1,0,0,1,9.821,6.764,23.535,23.535,0,0,1,3.283,3.194" transform="translate(-27.344 -39.679)" fill="#ccc"/>
                    </g>
                  </g>
                </g>
                <path id="Path_66" data-name="Path 66" d="M85.877,52.378c-.792.817-3.225,2.661-5.859,4.706-1.62,1.249-3.319,2.574-4.76,3.787a30.128,30.128,0,0,0-2.891,2.678c-.268-.249-5.111-.645-7.035-3.744-1.883-3.028-3.874-5.936-4.659-5.787-.989.734-2.582,1.972-4.335,3.231-2.649,1.906-5.675,3.881-7.546,4.275A30.142,30.142,0,0,1,39.1,66.652c-.51.185-1.018.344-1.514.5-1.929,2.12-6.023,3.613-9.381,5.283a5.95,5.95,0,0,1-4.982-.122,10.885,10.885,0,0,1-4.646-3.557,1.416,1.416,0,0,1-.06-.707c.234-1.981,3.354-5.552,7.936-9.57A168.636,168.636,0,0,1,40.261,47.763c8.029-5.635,16.9-10.962,23.276-13.117,2.638-.894,4.853-1.244,6.4-.852a9.968,9.968,0,0,1,4.331,2.883A79.893,79.893,0,0,1,81.916,45.8a34.632,34.632,0,0,1,3.962,6.577" transform="translate(19.872 36.128)" fill="#deae80"/>
                <path id="Path_67" data-name="Path 67" d="M27.979,46.6a2.53,2.53,0,0,0-1.533-.981c-4.582,4.02-7.7,7.589-7.936,9.566.112.006.22,0,.332,0,2.883-.164,6.042-.575,7.981-2.709,1.168-1.284,2.319-4.235,1.155-5.874" transform="translate(19.883 48.996)" fill="#f6e2ca"/>
                <g id="Group_67" data-name="Group 67" transform="translate(43.101 84.318)" style="mix-blend-mode: multiply;isolation: isolate">
                  <g id="Group_66" data-name="Group 66">
                    <g id="Group_65" data-name="Group 65" clip-path="url(#clip-path-6)">
                      <path id="Path_68" data-name="Path 68" d="M72.81,53.335a30.718,30.718,0,0,0-2.893,2.678c-.268-.251-5.109-.647-7.031-3.742C61,49.239,59,46.329,58.22,46.48c-2.489,1.846-8.765,6.849-11.876,7.508-3.016,2.615-7.367,4.43-11.2,5.625C33.21,61.74,29.12,63.233,25.762,64.9a5.95,5.95,0,0,1-4.982-.122c.973-2.885,5.25-5.384,7.562-6.606,3.277-1.724,6.814-2.958,9.931-4.955,2.539-1.622,8.633-7.593,11.09-9.348s5.287-3.19,8.307-3.215c5-.037,9.186,3.746,12.194,7.737a22.894,22.894,0,0,1,2.945,4.947" transform="translate(-20.78 -40.652)" fill="#e6e6e6"/>
                    </g>
                  </g>
                </g>
                <g id="Group_70" data-name="Group 70" transform="translate(52.553 96.561)" style="mix-blend-mode: multiply;isolation: isolate">
                  <g id="Group_69" data-name="Group 69">
                    <g id="Group_68" data-name="Group 68" clip-path="url(#clip-path-7)">
                      <path id="Path_69" data-name="Path 69" d="M64.684,55.8c-.278-.135-4.293.682-6.573-1.365-2.244-2.012-4.555-3.893-5.142-3.584-1.583,2.08-7.137,7.434-9.5,8.7a27.041,27.041,0,0,1-7.737,7.191c-1.052,2.176-4.013,4.347-6.339,6.5a5.01,5.01,0,0,1-4.057,1.07c.367-2.288,3.92-4.65,5.436-6.166Q37.883,61.029,44.982,53.9c1.543-1.549,7.145-7.056,9.313-7.315,1.925-.224,3.777.7,5.5,1.585,2.425,1.253,4.853,2.516,7.278,3.771A32.548,32.548,0,0,0,64.684,55.8" transform="translate(-25.336 -46.555)" fill="#e6e6e6"/>
                    </g>
                  </g>
                </g>
                <g id="Group_73" data-name="Group 73" transform="translate(60.133 70.774)" style="mix-blend-mode: multiply;isolation: isolate">
                  <g id="Group_72" data-name="Group 72">
                    <g id="Group_71" data-name="Group 71" clip-path="url(#clip-path-8)">
                      <path id="Path_70" data-name="Path 70" d="M86.918,75.137c-.956.025-1.91.015-2.858-.025-9.643-.411-11.426-2.36-21.017-3.366-2.25-.224.483,4.76.068,2.51,0,0-11.949-8.716-12.219-9.207a49.535,49.535,0,0,1-2.524-6.218,2.992,2.992,0,0,1-.037-1.124.212.212,0,0,1,0-.037c-.008,0-1.315-.353-1.313-.361-6.772-1.894-10.34-4.109-15.869-9.1l0,.006c-.137-.118-.564-.51-.7-.633-1.18-.27-.927-.212-1.456-.34,8.029-5.635,16.9-10.962,23.276-13.119,6.28,3.615,16.033,9.985,18.379,11.157,5.577,2.8,11.92,2.63,16.164,10.464a14.8,14.8,0,0,1,1.205,6.386,76.584,76.584,0,0,1-1.1,13.009" transform="translate(-28.992 -34.123)" fill="#ccc"/>
                    </g>
                  </g>
                </g>
                <path id="Path_71" data-name="Path 71" d="M112.309,80.055q-1.434.037-2.86-.027c-9.641-.409-11.424-2.358-21.015-3.364-1.139-.112-3.35.564-5.395,1.02-2.1.475-4.022.732-4.435-.334a.408.408,0,0,1-.027-.075l-.008-.015a85.1,85.1,0,0,0-4.808-13.5,3.309,3.309,0,0,1-.039-1.182c-.324-.079-.649-.162-.958-.251-6.826-1.86-10.408-3.949-16.226-9.205-.239-.2-.463-.4-.7-.626-.353-.083-.7-.158-1.052-.243a154.973,154.973,0,0,1-22.046-7.506,3.745,3.745,0,0,1-.577.307c-8.606,2.394-12.717,3.543-21.729,2.877a3.8,3.8,0,0,1-2.485-1.147,6.676,6.676,0,0,1-1.618-3.458,8.15,8.15,0,0,1-.143-1.439c-.012-.871.674-2.087,2.068-3.346a37.16,37.16,0,0,1,5.171-3.8,43.008,43.008,0,0,1,7.017-3.3c13.216-4.8,27.331-2.655,40.686.5C71.892,34.494,80.977,41.16,94.826,49.53c5.849,3.53,12.822,2.721,17.375,11.13a14.8,14.8,0,0,1,1.205,6.384,76.807,76.807,0,0,1-1.1,13.011" transform="translate(6.649 30.762)" fill="#edb287"/>
                <path id="Path_72" data-name="Path 72" d="M19.379,30a42.871,42.871,0,0,0-7.021,3.292,36.908,36.908,0,0,0-5.173,3.8,8.727,8.727,0,0,0,6.154-.039L18.8,35.006c1.207-.45,1.985-1.425,1.7-2.147Z" transform="translate(7.718 32.219)" fill="#ecd8c0"/>
                <path id="Path_73" data-name="Path 73" d="M38.112,46.021c.714.195.714.195,1.317.357.021.4.031.784.041,1.178a49.261,49.261,0,0,1,12.15-3.485c-4.594-.964-9.209.245-13.509,1.95" transform="translate(40.937 46.971)" fill="#ca9a6c"/>
                <path id="Path_74" data-name="Path 74" d="M37.065,36.239a23.08,23.08,0,0,0-7.444,7.855c.351.085.7.162,1.047.241.239.22.465.427.7.633.821-2.319.253-2.771,5.7-8.728" transform="translate(31.817 38.926)" fill="#ca9a6c"/>
                <path id="Path_75" data-name="Path 75" d="M22.682,32.265c-2.786,3.74-3.874,5.949-4,8.867l.068.027c.18-.1.371-.2.575-.3q.5.215,1.064.444c.062-2.242.191-4.5,2.3-9.035" transform="translate(20.064 34.657)" fill="#ca9a6c"/>
                <g id="Group_76" data-name="Group 76" transform="translate(14.599 72.066)" style="mix-blend-mode: multiply;isolation: isolate">
                  <g id="Group_75" data-name="Group 75">
                    <g id="Group_74" data-name="Group 74" clip-path="url(#clip-path-9)">
                      <path id="Path_76" data-name="Path 76" d="M80.9,68.328a4.909,4.909,0,0,1-3.207,2.464.658.658,0,0,1-.027-.075l-.008-.015a85.1,85.1,0,0,0-4.808-13.5,3.347,3.347,0,0,1-.039-1.18c-.321-.081-.649-.164-.956-.253-6.828-1.86-10.41-3.949-16.228-9.2-.239-.2-.463-.4-.7-.626-.353-.083-.7-.158-1.052-.241a155.332,155.332,0,0,1-22.046-7.508,3.653,3.653,0,0,1-.577.307c-8.6,2.394-12.717,3.543-21.729,2.879a3.819,3.819,0,0,1-2.485-1.149c2.543-2.773,7.127-3.953,10.543-4.659a48.1,48.1,0,0,1,17.17-.1c16.761,2.69,34.3,9,45.467,21.758,2.049,2.346,2.055,8.315.68,11.1" transform="translate(-7.039 -34.745)" fill="#dcdcdc"/>
                    </g>
                  </g>
                </g>
                <path id="Path_77" data-name="Path 77" d="M138.234,186.577c-1.108,5.808-52.144,23.95-50.615,26.787-1.887-3.524-3.6-6.776-5.16-9.8-3.078-5.944-5.573-11.01-7.705-15.467-3.673-7.66-6.283-13.517-8.9-18.935a164.456,164.456,0,0,0-13.89-23.815,134.623,134.623,0,0,1-7.936-13.725c-2.06-3.97-4.055-8.077-5.756-11.754-1.147-2.481-2.159-4.771-2.966-6.689a5.71,5.71,0,0,1-.4-2.458,8.6,8.6,0,0,1,.2-1.516,18.891,18.891,0,0,1,1.952-4.97,53.841,53.841,0,0,1,7.218-9.854,37.458,37.458,0,0,0,8.844-17.136,42.942,42.942,0,0,0,1.023-8.606c2.81-2.215,5.382-4.781,8.336-6.814a23.539,23.539,0,0,1,2.06-1.28c3.891-2.153,8.137-3.6,11.325-6.849a17.037,17.037,0,0,0,2.389-3.072A20.349,20.349,0,0,0,80.82,42.5c3.231,2.489,6.473,5.851,7.413,8.328,4.949,13.077,3.132,37.587,12.582,72.263,5.8,21.293,15.042,29.054,37.419,63.487" transform="translate(37.487 45.65)" fill="#ffc295"/>
                <g id="Group_79" data-name="Group 79" transform="translate(87.336 113.121)" style="mix-blend-mode: multiply;isolation: isolate">
                  <g id="Group_78" data-name="Group 78">
                    <g id="Group_77" data-name="Group 77" clip-path="url(#clip-path-10)">
                      <path id="Path_78" data-name="Path 78" d="M42.94,54.63c.332.114.664.218,1.006.315a2.11,2.11,0,0,1,.1.73c-.214,2.435-3.412-1.8-1.1-1.045" transform="translate(-42.107 -54.539)" fill="#ccc"/>
                    </g>
                  </g>
                </g>
                <g id="Group_82" data-name="Group 82" transform="translate(17.762 53.06)" style="mix-blend-mode: multiply;isolation: isolate">
                  <g id="Group_81" data-name="Group 81">
                    <g id="Group_80" data-name="Group 80" clip-path="url(#clip-path-11)">
                      <path id="Path_79" data-name="Path 79" d="M112.5,89.311c-.241.662-.5,1.356-.776,2.078-.535-.106-1.081-.209-1.63-.307-9.7-1.717-21.405-2.387-30.118-5.034a11.1,11.1,0,0,0-.66-1.7c-1.13-2.437-3.308-6.063-5.138-9.473-1.786-3.346-3.227-6.475-2.991-8.075-7.755-3.87-11.412-12.453-14.5-20.478-.083-.22-.172-.448-.255-.67-.276.037-.6.066-.962.091a72.6,72.6,0,0,1-17.622-1.294,24.587,24.587,0,0,1-7.668-2.75,4.83,4.83,0,0,1-.446-.29,3.83,3.83,0,0,1-.535.1c-4.87.77-17.342-1.406-19.584-5.965,1.759.512-.232.427,1.964,1.062-.409-.3-1.429-.309-1.707-.668a8.6,8.6,0,0,1-1.2-5.55c6.907-3.192,18.619-4.889,21.173-4.8,20.891.736,36.525-.751,41.588,2.238C74.288,29.51,88.6,45.329,100.748,56.781c5.129,4.824,11.59,7.656,14.343,17.126.913,3.144.384,7.262-2.589,15.4" transform="translate(-8.564 -25.581)" fill="#ccc"/>
                    </g>
                  </g>
                </g>
                <path id="Path_80" data-name="Path 80" d="M114.387,89.74c-.093.261-.193.521-.3.79-.523-.1-1.054-.2-1.589-.3a.337.337,0,0,0-.041-.006c-9.35-1.653-20.2-2.294-28.874-4.673-.774-.209-1.52-.431-2.253-.674a2.675,2.675,0,0,0-2.016.386c-2.035,1.066-4.132,3.468-3.966,1.659a23.092,23.092,0,0,0-.216-3.364c-.006-.008,0-.019,0-.025-.243-2.147-.624-4.965-.954-7.739-.073-.579-.139-1.149-.2-1.717a51.251,51.251,0,0,1-.485-7.56c.015-.216.033-.407.058-.577-.261-.133-.519-.268-.772-.413C65.5,61.46,62,53.126,59.049,45.466c-.083-.22-.17-.448-.253-.674-.282.041-.6.071-.967.1-5.3.38-19.2-.218-25.286-4.047-.151-.087-.3-.187-.448-.288a4.266,4.266,0,0,1-.533.1c-.413.064-.958.12-1.622.168-.133.01-.263.021-.407.029a.477.477,0,0,1-.075,0c-.127.006-.257.01-.388.021-.261.017-.543.029-.823.033-.151,0-.295.012-.442.012-.446.012-.921.023-1.41.017-.162,0-.326,0-.492,0-.2,0-.4,0-.606-.008-.3,0-.616-.015-.933-.019-.176-.008-.351-.01-.525-.025-.359-.01-.718-.033-1.076-.054q-.821-.044-1.649-.127c-.313-.029-.639-.06-.958-.093a25.4,25.4,0,0,1-7.8-1.9,8.782,8.782,0,0,1-1.462-.869,5.028,5.028,0,0,1-1.027-.977A8.576,8.576,0,0,1,8.675,31.31a1.265,1.265,0,0,1,.527-.828c6.417-3.8,20.21-5.851,23.01-5.754,20.889.736,36.521-.751,41.591,2.238,2.85,1.688,17.163,17.508,29.312,28.957,5.127,4.827,11.588,7.654,14.341,17.126.956,3.3.328,7.691-3.068,16.691" transform="translate(9.198 26.558)" fill="#ffc295"/>
                <path id="Path_81" data-name="Path 81" d="M22.352,25.173A38.43,38.43,0,0,0,8.627,30.058c3.08,2.238,7.79.857,12.179.091,1.313-.228,2.288-1.07,2.136-1.856Z" transform="translate(9.267 27.039)" fill="#f6e2ca"/>
                <path id="Path_82" data-name="Path 82" d="M20.633,36.953a5.278,5.278,0,0,1-.446-.288,4.31,4.31,0,0,1-.535.1c.564-2.711,1.58-4.86,3.773-8.423a33.412,33.412,0,0,0-2.792,8.608" transform="translate(21.109 30.446)" fill="#d4a476"/>
                <path id="Path_83" data-name="Path 83" d="M39.151,31.407a24.879,24.879,0,0,0-5.615,6.882c-.083-.222-.172-.45-.255-.672-.276.037-.6.068-.964.091,1.4-2.375,3.219-3.955,6.834-6.3" transform="translate(34.713 33.735)" fill="#d4a476"/>
                <path id="Path_84" data-name="Path 84" d="M49.23,90.806c0,3.47-1.74,6.293-3.881,6.293H4.766C2.628,97.1.886,94.276.886,90.806V2.072c0-.348.174-.631.388-.631H48.842c.214,0,.388.282.388.631ZM48.842,0H1.274C.572,0,0,.929,0,2.076V90.8c0,4.269,2.136,7.732,4.766,7.732H45.349c2.632,0,4.768-3.464,4.768-7.732V2.076C50.117.929,49.543,0,48.842,0" fill="#bfbfbf"/>
                <path id="Path_85" data-name="Path 85" d="M45.366,38.678H3.832c-1.73,0-3.155-2.093-3.373-4.8H.428V54.42c0,3.466,1.74,6.289,3.881,6.289h40.58c2.141,0,3.883-2.823,3.883-6.289V33.876h-.033c-.218,2.709-1.643,4.8-3.373,4.8" transform="translate(0.46 36.387)" fill="#c6c6c6"/>
                <g id="Group_85" data-name="Group 85" transform="translate(0.886 1.446)" opacity="0.4">
                  <g id="Group_84" data-name="Group 84">
                    <g id="Group_83" data-name="Group 83" clip-path="url(#clip-path-12)">
                      <path id="Path_86" data-name="Path 86" d="M48.769,1.249V68.8c0,3.045-1.522,5.523-3.4,5.523H3.833C1.954,74.32.427,71.842.427,68.8V1.249C.427.94.58.7.767.7H48.429c.191,0,.34.243.34.552" transform="translate(-0.427 -0.697)" fill="#b7d1e8"/>
                    </g>
                  </g>
                </g>
                <path id="Path_87" data-name="Path 87" d="M48.769,5.594V63.537c0,3.047-1.522,5.523-3.4,5.523H3.833c-1.879,0-3.406-2.477-3.406-5.523V5.594Z" transform="translate(0.459 6.009)" fill="#ddd"/>
                <g id="Group_88" data-name="Group 88" transform="translate(4.061 0.004)" opacity="0.3">
                  <g id="Group_87" data-name="Group 87">
                    <g id="Group_86" data-name="Group 86" clip-path="url(#clip-path-13)">
                      <path id="Path_88" data-name="Path 88" d="M10.387,90.8V2.07C10.387.927,10.958,0,11.663,0H3.234C2.53,0,1.958.927,1.958,2.07V90.8c0,4.271,2.136,7.73,4.768,7.73h8.429c-2.634,0-4.768-3.46-4.768-7.73" transform="translate(-1.958 -0.002)" fill="#fff"/>
                    </g>
                  </g>
                </g>
                <g id="Group_91" data-name="Group 91" transform="translate(31.325 0.004)" style="mix-blend-mode: multiply;isolation: isolate">
                  <g id="Group_90" data-name="Group 90">
                    <g id="Group_89" data-name="Group 89" clip-path="url(#clip-path-13)">
                      <path id="Path_89" data-name="Path 89" d="M19.87,90.8V2.07C19.87.927,19.3,0,18.595,0h8.429c.7,0,1.276.925,1.276,2.068V90.8c0,4.271-2.134,7.73-4.768,7.73H15.1c2.634,0,4.768-3.46,4.768-7.73" transform="translate(-15.103 -0.002)" fill="#e6e6e6"/>
                    </g>
                  </g>
                </g>
                <g id="Group_94" data-name="Group 94" transform="translate(25.059)" style="mix-blend-mode: multiply;isolation: isolate">
                  <g id="Group_93" data-name="Group 93">
                    <g id="Group_92" data-name="Group 92" clip-path="url(#clip-path-15)">
                      <path id="Path_90" data-name="Path 90" d="M37.14,2.076V90.8c0,4.269-2.136,7.732-4.768,7.732H12.082V0H35.864c.7,0,1.276.929,1.276,2.076" transform="translate(-12.081)" fill="#f2f2f2"/>
                    </g>
                  </g>
                </g>
                <g id="Group_97" data-name="Group 97" transform="translate(21.557 63.244)" style="mix-blend-mode: multiply;isolation: isolate">
                  <g id="Group_96" data-name="Group 96">
                    <g id="Group_95" data-name="Group 95" clip-path="url(#clip-path-16)">
                      <path id="Path_91" data-name="Path 91" d="M67.567,69.792a12.993,12.993,0,0,0,4.449-1.908,51.237,51.237,0,0,1-.485-7.56c.015-.216.033-.407.058-.577-.263-.131-.519-.265-.772-.413-7.278-4.069-10.779-12.4-13.733-20.063-.083-.22-.17-.448-.253-.672-.282.039-.6.071-.967.093-5.3.38-19.2-.218-25.286-4.047a5.167,5.167,0,0,1-.45-.288,4.19,4.19,0,0,1-.533.1c-.411.064-.956.122-1.62.168-.133.01-.265.023-.409.029a.3.3,0,0,1-.075,0c-.124.006-.255.012-.386.023-.263.017-.543.027-.826.031-.149.006-.292.012-.442.012-.444.012-.921.023-1.41.017-.16,0-.324,0-.489,0-.2,0-.4,0-.606-.008-.3,0-.618-.006-.933-.019-.176-.008-.353-.01-.527-.025-.359-.01-.716-.033-1.079-.052-.543-.029-1.1-.073-1.645-.127-.324-.027-.641-.056-.96-.1a25.4,25.4,0,0,1-7.8-1.9,8.086,8.086,0,0,1,4.076-1.439c9.321-1.319,19.024-.122,28.326.819,5.231.527,10.561,1.072,15.409,3.136a35.8,35.8,0,0,1,12.777,9.86c3.256,3.777,7.282,8.141,9.46,13.032C86.917,72.456,68.569,70.07,67.567,69.792" transform="translate(-10.392 -30.492)" fill="#e6e6e6"/>
                    </g>
                  </g>
                </g>
                <path id="Path_92" data-name="Path 92" d="M74.985,123.852a29.009,29.009,0,0,0-5.38,4.872v.006c-11.918-15.55-16.742-27.978-17.572-41.182-.1-1.695-1.873-2.555-2.831-3.335-2.319-1.89-4.951-5.156-8.543-7.965-3.951-3.078-8.9-5.731-12.109-8.608C8.4,43.574,6.167,43.848,5.76,39.982a4.3,4.3,0,0,1-.015-.863c.168-2.593,2.437-4.779,7.233-4.87,5.169-.1,29.868,23.871,49.232,30.386q1.5.507,2.964.869c5.113,1.255,8.89.313,11.85-1.657,3.767-2.483,6.22-6.6,8.427-9.96a29.118,29.118,0,0,1,2.506-3.429s.008-.01,0-.019c2.031-2.213,2.674-4.306,7.459-2.091,4.036,1.871,9.5,6.488,14.162,11.132,5.154,5.129,9.323,10.29,9.493,11.823a2.259,2.259,0,0,1-.239,1.309,8.525,8.525,0,0,0-1.46,5.546c.027.454.048.908.056,1.352.641,26.149-27.708,33.632-42.447,44.341" transform="translate(6.155 36.788)" fill="#ffc295"/>
                <g id="Group_100" data-name="Group 100" transform="translate(11.886 75.907)" style="mix-blend-mode: multiply;isolation: isolate">
                  <g id="Group_99" data-name="Group 99">
                    <g id="Group_98" data-name="Group 98" clip-path="url(#clip-path-17)">
                      <path id="Path_93" data-name="Path 93" d="M119.8,208.663a44.345,44.345,0,0,1-6.013,1.234c-3.076-5.942-5.573-11.007-7.705-15.465-3.671-7.66-6.283-13.517-8.9-18.937A164.064,164.064,0,0,0,83.3,151.682a134.319,134.319,0,0,1-7.934-13.727c-2.06-3.97-4.055-8.075-5.758-11.752v0C57.687,110.66,52.862,98.232,52.033,85.028c-.1-1.7-1.873-2.557-2.831-3.337-2.319-1.89-4.951-5.154-8.543-7.965C36.707,70.65,31.76,68,28.549,65.118,8.4,41.052,6.167,41.326,5.761,37.46a4.15,4.15,0,0,1-.015-.863c1.224.139,2.688,1.574,3.756,2.674C15.271,45.207,20.958,51.224,26.685,57.2A67.362,67.362,0,0,0,35.8,65.6c2.763,1.985,5.814,3.534,8.649,5.42a44.04,44.04,0,0,1,17.686,24.06c.921,3.159,1.487,6.434,2.777,9.46a34.718,34.718,0,0,0,3.474,6.027c.585.861,1.184,1.715,1.778,2.572,1.037,1.5,2.7,4.366,4.82,8.187,12.364,22.394,39.9,77.838,44.818,87.334" transform="translate(-5.731 -36.597)" fill="#f1f2f2"/>
                    </g>
                  </g>
                </g>
                <path id="Path_94" data-name="Path 94" d="M21.462,48.393l-4.677,3.7c-2.831-3.2-5.944-6.662-9.064-10.026a7.148,7.148,0,0,1-1.977-4.02,7.761,7.761,0,0,1,1.309-1.008c3.555-2.188,8.7-.649,11.505,3.433l3.136,4.576a2.457,2.457,0,0,1-.232,3.344" transform="translate(6.17 38.718)" fill="#f6e2ca"/>
                <path id="Path_95" data-name="Path 95" d="M40.984,108.211l5.42,10.315,57.46-30.073-5.42-10.315Z" transform="translate(44.022 83.93)" fill="#fff"/>
                <path id="Path_96" data-name="Path 96" d="M39.567,117.3l62.684,117.481,62.34-54.114L110.8,80.021Z" transform="translate(42.501 85.954)" fill="#1f386a"/>
                <g id="Group_103" data-name="Group 103" transform="translate(82.068 177.104)" style="mix-blend-mode: multiply;isolation: isolate">
                  <g id="Group_102" data-name="Group 102">
                    <g id="Group_101" data-name="Group 101" clip-path="url(#clip-path-18)">
                      <path id="Path_97" data-name="Path 97" d="M42.506,100.424l3.947,7.51-6.886,3.6,62.684,117.479,31.2-27.08L71.235,85.387Z" transform="translate(-39.568 -85.388)" fill="#e6e6e6"/>
                    </g>
                  </g>
                </g>
                <path id="Path_98" data-name="Path 98" d="M44.45,104.988A4.89,4.89,0,1,0,46.5,98.395a4.9,4.9,0,0,0-2.051,6.594" transform="translate(47.139 105.084)" fill="#fff"/>
                <path id="Path_99" data-name="Path 99" d="M47.366,110.521a4.89,4.89,0,1,0,2.051-6.6,4.9,4.9,0,0,0-2.051,6.6" transform="translate(50.272 111.026)" fill="#fff"/>
                <path id="Path_100" data-name="Path 100" d="M46.691,43.307a27.452,27.452,0,0,0-6.448,3.25c.012-.212.031-.4.056-.575-.263-.133-.521-.268-.774-.415a23.243,23.243,0,0,1,7.166-2.261" transform="translate(42.455 46.517)" fill="#d4a476"/>
              </g>
            </g>
          </g>
        </g>
        <g transform="matrix(1, 0, 0, 1, -1477.97, 1348.92)" filter="url(#Intersection_8)" style="mix-blend-mode: hard-light;isolation: isolate">
          <path id="Intersection_8-2" data-name="Intersection 8" d="M144.752,320.736l-1.912-3.583L82.068,203.258v0h0l6.885-3.6-3.947-7.511,3.855-2.017a145.245,145.245,0,0,1-7.346-12.856c-2.06-3.97-4.055-8.076-5.756-11.754v0c-11.918-15.548-16.743-27.976-17.572-41.18a2.77,2.77,0,0,0-.838-1.762c-.251.223-.5.445-.738.666a4.626,4.626,0,0,1-3.21,1.12,7.566,7.566,0,0,1-.848-.05h0a9.28,9.28,0,0,1-4.613-1.782,1.411,1.411,0,0,1-.207-.558,4.536,4.536,0,0,1,.228-1.9c.016-.055.033-.111.051-.168q.1-.332.236-.693c.009-.023.017-.047.026-.071l.035-.09a28.386,28.386,0,0,1,1.583-3.33c-.947-.9-1.967-1.816-3.079-2.686-3.266-2.543-7.213-4.8-10.3-7.129L36.5,105.9h0c-.64-.484-1.242-.971-1.794-1.466h0c-1.8-2.152-3.46-4.109-4.987-5.892H4.766C2.136,98.536,0,95.072,0,90.8V2.076C0,.929.572,0,1.273,0H48.842c.689,0,1.253.893,1.275,2.008V51.487c3.61.044,7.008.044,10.16.043,11.235,0,19.337,0,22.723,2,2.85,1.688,17.164,17.508,29.311,28.957,3.836,3.611,8.419,6.1,11.636,11.1a11.538,11.538,0,0,1,1.771,2.9c4.759,12.576,3.262,35.724,11.542,68.316l5.2-2.724,3.946,7.51,6.885-3.6,53.794,100.644v0l-62.338,54.112ZM80.188,100.855c-.335.441-.849,1.028-1.473,1.692a12.79,12.79,0,0,0,3.006-1.064,6.389,6.389,0,0,0-.861-.512l-.008,0-.006,0a1.781,1.781,0,0,0-.345-.124h0l-.015,0a.732.732,0,0,0-.138-.015A.327.327,0,0,0,80.188,100.855ZM14.488,97.1H25.06v0H14.487ZM.886,90.805c0,3.47,1.742,6.293,3.881,6.293H6.06l0,0H4.768c-2.14,0-3.881-2.823-3.881-6.289V70.263H.914q-.028-.353-.028-.718Zm49.231.129c0,.168-.007.335-.015.5,2.972-2.405,6.416-5,10.032-7.543h0q.629-.442,1.264-.88a114.42,114.42,0,0,1-11.28-3.385ZM12.549,1.446H25.06v0H12.55S12.549,1.444,12.549,1.446Zm-11.32,0H4.12a.009.009,0,0,0,0,0H1.273A.234.234,0,0,0,1.229,1.446Z" transform="translate(207.5 337)" fill="#ed690f" opacity="0.4"/>
        </g>
      </g>
      <g id="Group_168" data-name="Group 168" transform="translate(0 38.242)">
        <g id="Group_166" data-name="Group 166" transform="translate(-1098.521 1347)">
          <g id="Group_165" data-name="Group 165" clip-path="url(#clip-path-19)">
            <g id="Group_164" data-name="Group 164">
              <g id="Group_163" data-name="Group 163" clip-path="url(#clip-path-19)">
                <path id="Path_101" data-name="Path 101" d="M107.261,143.154l16.328-28.313a8.006,8.006,0,0,0-2.583-10.72L81.759,78.7,58.137,111.334Z" transform="translate(102.549 67.24)" fill="#1b8edb"/>
                <path id="Path_102" data-name="Path 102" d="M108.224,143.495,58.053,111c3.933-5.437,23.6-32.6,23.62-32.638.258.165,40.44,26.183,40.681,26.37a7.972,7.972,0,0,1,3.117,4.885c.764,3.905.653,2.86-17.246,33.882" transform="translate(101.666 66.951)" fill="#10a2ff"/>
                <path id="Path_103" data-name="Path 103" d="M88.206,78.781c-1.276-.935-3.032-1.228-3.3-.649L81.814,83.6l1.981,1.283Z" transform="translate(95.097 66.504)" fill="#161f3c"/>
                <path id="Path_104" data-name="Path 104" d="M227.44,150.156a5.5,5.5,0,0,1,.427-.729,12.873,12.873,0,0,1,2.383-2.5c5.357-4.508,15.557-8.616,22.236-15.861,13.285-14.409,13.925-16.727,15.416-22.366.961-3.633-1.56-7.292-3.31-10.617Q260,89.367,255.42,80.657a17.741,17.741,0,0,1-1.2-2.6c-.475-1.471-.208-2.535.846-4.842,2.507-5.491,7.644-.625,13.344-7.214a10.063,10.063,0,0,0,4.653-4.692c.174-.317.337-.645.493-.983a22.641,22.641,0,0,0,1.185-3.271,30.441,30.441,0,0,0,.992-5.526,29.845,29.845,0,0,0,.108-3.548c-.007-.2-.015-.4-.024-.6.836-.063,1.7-.134,2.578-.208,1.344-.113,2.726-.236,4.115-.362q.974-.086,1.945-.176c2.144-.193,4.261-.378,6.246-.529,2.724-.2,5.563-.391,8.091.64a9.533,9.533,0,0,1,1.072.519c2.837,1.608,4.753,4.586,6.439,7.438.4.671.762,1.25,1.111,1.771.306.458.6.875.9,1.272.961,1.294,1.914,2.392,3.266,4.182,4,5.3,14.6.872,12.395-6.277-2.834-9.209-3.407-13.424-9.838-20.606s-17.712-13.734-27.36-13.828c-9.415-.093-19.555,7.948-28.237,11.57-13.293,5.547-13.786,2.9-19.666,9.157-4.732,5.038-13.784,18.594-19.5,27.1-8.738,13.005-17.751,28.768-24.464,41.222a3.7,3.7,0,0,0-.4,1.1c-2.275,4.367-4.7,9.3-7.319,14.856-.18.382-166.22,253.992-180.128,274.463l39.924,26.079c13.287-20.1,179.346-274.289,180.464-276.612" transform="translate(-2.322 18.136)" fill="#ffc295"/>
                <g id="Group_114" data-name="Group 114" transform="translate(247.653 51.703)" style="mix-blend-mode: multiply;isolation: isolate">
                  <g id="Group_113" data-name="Group 113" transform="translate(0)">
                    <g id="Group_112" data-name="Group 112" clip-path="url(#clip-path-21)">
                      <path id="Path_105" data-name="Path 105" d="M69.53,41.589a9.344,9.344,0,0,0-1.07-.519c-2.529-1.031-5.369-.842-8.093-.64-3.866.291-8.254.725-12.306,1.066-.879.074-1.741.145-2.578.208.009.195.019.395.024.6.2,6.312-1.806,15.572-7.429,18.018-5.7,6.589-10.839,1.723-13.346,7.214-1.053,2.307-1.32,3.371-.846,4.842-2.67-1.663-4.273-4.054-4.243-6.752.067-6.144,8.538-14.431,13.32-18.821,3.648-3.349,28.9-18.817,29.074-18.921,3.981.185,8.341,3.675,8.532,7.65a15.726,15.726,0,0,1-1.04,6.058" transform="translate(-19.643 -27.881)" fill="#f1f2f2"/>
                    </g>
                  </g>
                </g>
                <path id="Path_106" data-name="Path 106" d="M37.018,36.578c2.663,4.825,3.763,9.906,4.48,15.093l1.945-1.281a28.3,28.3,0,0,0-6.426-13.812" transform="translate(222.93 31.253)" fill="#d4a476"/>
                <path id="Path_107" data-name="Path 107" d="M36.588,40.666c-.247-2.676.009-4.477-4.549-11.57A30.272,30.272,0,0,1,38.7,40.5c-.877.076-1.278.106-2.114.169" transform="translate(236.905 24.86)" fill="#d4a476"/>
                <path id="Path_108" data-name="Path 108" d="M26.92,23.89c-.048,5.4-.464,10.155-2.248,14.784l1.89.013c1.613-4.226,1.307-10.07.358-14.8" transform="translate(261.566 20.412)" fill="#d4a476"/>
                <path id="Path_109" data-name="Path 109" d="M57.119,94.838c-3.805,2.4-7.288,6.361-11.727,5.61a27.911,27.911,0,0,1-5.977-2.913,59.391,59.391,0,0,1-7.681-5.107c-5.51-5.344-.614-8.642.161-16.267.274-2.693,1.307-5.723,3.852-6.657,2.427-.888-.432,4.345,1.228,6.324a12.589,12.589,0,0,0,2.092,1.658c4.612,3.178,13.539,6.949,14.852,8.58-1.178-2.7-1.927-2.732-3.089-4.1-.8-.936-1.337-1.6-1.259-2.053-2.707-4.844-5.072-9.784-8.521-13.871.082-.406.154-.827.213-1.261l0,0c.03-.224.056-.452.082-.686a13.36,13.36,0,0,1,.263-1.634c.484-2.185,1.554-4.274,3.59-5.02a4.347,4.347,0,0,1,1.81-.252c3.1,3.358,4.614,8,8.6,10.956A13.594,13.594,0,0,1,57.477,69.9a41.35,41.35,0,0,1,5.563,8.18,39.207,39.207,0,0,1,2.29,4.673,5.447,5.447,0,0,1,.2.964,5.821,5.821,0,0,1-.866,3.548c-2.032,3.705-3.319,4.9-7.549,7.57" transform="translate(215.401 48.855)" fill="#deae80"/>
                <g id="Group_117" data-name="Group 117" transform="translate(254.466 106.034)" style="mix-blend-mode: multiply;isolation: isolate">
                  <g id="Group_116" data-name="Group 116" transform="translate(0)">
                    <g id="Group_115" data-name="Group 115" transform="translate(0)" clip-path="url(#clip-path-22)">
                      <path id="Path_110" data-name="Path 110" d="M55.634,83.72c-3.08,2.754-6.707,5.337-10.693,4.664-2.266-.384-12.009-6.422-13.66-8.02a9.154,9.154,0,0,1-2.116-2.88c21.363,12.273,10.116,4.653,10.5,2.431-2.707-4.842-5.072-9.784-8.521-13.869.124-.619.226-1.267.3-1.951.274-2.689,1.309-5.721,3.852-6.654a4.358,4.358,0,0,1,1.812-.25c3.1,3.357,4.614,8,8.6,10.956,2.539,1.882,6.036,7.1,7.427,9.936,1.163,2.366,2.3,3.913,2.494,5.637" transform="translate(-29.166 -57.179)" fill="#d1d3d4"/>
                    </g>
                  </g>
                </g>
                <path id="Path_111" data-name="Path 111" d="M50.6,89.178c-.475.441-.964.89-1.469,1.33-2.984,2.6-6.461,4.922-10.257,4.28a4.088,4.088,0,0,1-.727-.213A22.857,22.857,0,0,1,35.63,93.4c-.72-.38-1.5-.814-2.305-1.274a65.255,65.255,0,0,1-8.03-5.281c-.032-.026-.059-.054-.083-.078-4.992-4.842-1.439-8.006-.152-14.233h0a20.367,20.367,0,0,0,.312-2.034c.009-.095.02-.191.033-.286.317-2.617,1.367-5.469,3.82-6.37,2.427-.888,5.137.606,6.8,2.585s5.968,9.213,7.57,11.175c.248.3.458-.386-.545-3.347-3.713-6.628-6.763-13.445-12.86-18a3.524,3.524,0,0,0,1.448.174c-.744-2.049-1.882-5.391-.15-7.282,1.519-1.656,4.089-1.072,5.819-.134C42.365,51.761,47.055,56,51.693,59.6c.032.028.063.052.1.076.3.23.592.456.888.681.184.141.369.28.554.415,2.463,1.825,6.029,4.992,7.516,7.766v0c.048.089.093.178.137.265a5.091,5.091,0,0,1,.558,2.65A8.248,8.248,0,0,1,60,75.153c-.247.395-.512.8-.783,1.205-.545.822-1.115,1.673-1.617,2.591-2.031,3.705-3.907,7.347-7,10.229" transform="translate(231.603 41.101)" fill="#deae80"/>
                <path id="Path_112" data-name="Path 112" d="M32.945,61.365C33.672,62.492,34.386,63.59,35,64.5a4.476,4.476,0,0,1-.469-.293,4.011,4.011,0,0,1-1.584-2.843" transform="translate(238.929 52.432)" fill="#d4a476"/>
                <g id="Group_120" data-name="Group 120" transform="translate(272.131 101.456)" style="mix-blend-mode: multiply;isolation: isolate">
                  <g id="Group_119" data-name="Group 119" transform="translate(0)">
                    <g id="Group_118" data-name="Group 118" transform="translate(0)" clip-path="url(#clip-path-23)">
                      <path id="Path_113" data-name="Path 113" d="M41.315,70.716a16.409,16.409,0,0,0-1.654,0l-.977.048c-6.47.325-9.892.317-11.894.07-.4-.048-.736-.108-1.035-.174a5.5,5.5,0,0,1-.6-2.047c-.86-1.535-1.684-3.082-2.522-4.608.046-.165.1-.328.154-.488A12.852,12.852,0,0,1,29.921,56c1.376-.566,3.546-.86,4.857-1.291.185.139.369.278.554.415,2.542,1.884,6.261,5.2,7.653,8.033,1.4,2.856-.017,5.061-1.671,7.557" transform="translate(-22.629 -54.71)" fill="#d1d3d4"/>
                    </g>
                  </g>
                </g>
                <path id="Path_114" data-name="Path 114" d="M45.623,84.4c-2.481.718-5.02.2-7.592.089a16.4,16.4,0,0,0-1.654,0l-.975.048c-6.47.325-9.893.317-11.9.07a6.382,6.382,0,0,1-2.407-.669.4.4,0,0,0-.056-.032c-.13-.076-.25-.156-.369-.239a4.409,4.409,0,0,1-1.641-3.824,8.271,8.271,0,0,1,.465-2.554,12.855,12.855,0,0,1,7.141-7.516,20.852,20.852,0,0,1,3.089-.84c.065-.013.124-.028.187-.041,1.252-.282,2.351-.564,2.635-1a8.22,8.22,0,0,0,1.042-2.7,12.6,12.6,0,0,0-.818-7.917C29.5,50.906,21.311,49.56,15.236,46.9c2.047-4.432,7.954-7.08,9.051-9.726,5.289-.187,20.393,3.872,23.811,8.312,1.115,1.446.775,2.285.935,3.705a7.043,7.043,0,0,0,.219,1.1c4.97,17.482,4.195,25.463,3.251,28.237-1.009,2.965-3.863,5.005-6.88,5.873" transform="translate(253.567 31.761)" fill="#deae80"/>
                <path id="Path_115" data-name="Path 115" d="M34.513,66.751c-6.47.325-9.892.317-11.9.07a4.434,4.434,0,0,1,1.244-3.579c2.325-2.509,5.089-5.087,8.51-5.244,2.062-.095,5.639,1.081,6.262,3.384.64,2.376-1.973,4.445-4.121,5.369" transform="translate(254.455 49.551)" fill="#f6e2ca"/>
                <path id="Path_116" data-name="Path 116" d="M2.875,0h59c1.791,0,3.143,1.328,2.832,2.772-7.26,33.593-13.265,67.9-14.37,89.984a2.217,2.217,0,0,1-2.374,1.875H16.789a2.219,2.219,0,0,1-2.376-1.875C13.308,70.669,7.3,36.365.045,2.772-.268,1.328,1.084,0,2.875,0M.946,2.372C3.489,12.454,18.432,80.6,24.049,80.6H40.7c3.944,0,23.034-77.956,23.1-78.229a1.1,1.1,0,0,0-.428-1.127,2.349,2.349,0,0,0-1.5-.493h-59a2.361,2.361,0,0,0-1.5.493A1.112,1.112,0,0,0,.946,2.372" transform="translate(270.273)" fill="#bfbfbf"/>
                <g id="Group_123" data-name="Group 123" transform="translate(271.189 0.751)" opacity="0.4">
                  <g id="Group_122" data-name="Group 122">
                    <g id="Group_121" data-name="Group 121" clip-path="url(#clip-path-24)">
                      <path id="Path_117" data-name="Path 117" d="M40.277,80.255c3.943,0,23.032-77.955,23.1-78.229A1.11,1.11,0,0,0,62.951.9a2.356,2.356,0,0,0-1.5-.493h-59A2.356,2.356,0,0,0,.952.9,1.11,1.11,0,0,0,.524,2.026c2.541,10.081,17.485,78.229,23.1,78.229Z" transform="translate(-0.493 -0.405)" fill="#b7d1e8"/>
                    </g>
                  </g>
                </g>
                <path id="Path_118" data-name="Path 118" d="M54.607,14.63C48.649,37.549,40.244,68.1,37.776,68.1H21.125C17.379,68.1,9.489,37.81,3.892,14.63Z" transform="translate(273.197 12.5)" fill="#e8d3b0"/>
                <g id="Group_126" data-name="Group 126" transform="translate(304.027 -0.002)" opacity="0.4">
                  <g id="Group_125" data-name="Group 125" transform="translate(0)">
                    <g id="Group_124" data-name="Group 124" transform="translate(0)" clip-path="url(#clip-path-25)">
                      <path id="Path_119" data-name="Path 119" d="M5.074,92.757C6.179,70.669,12.186,36.365,19.442,2.772,19.756,1.326,18.4,0,16.612,0h9.2c1.788,0,3.141,1.326,2.828,2.772-7.256,33.593-13.263,67.9-14.368,89.984A2.218,2.218,0,0,1,11.9,94.632H2.7a2.218,2.218,0,0,0,2.376-1.875" transform="translate(-2.699 0.002)" fill="#fff"/>
                    </g>
                  </g>
                </g>
                <g id="Group_129" data-name="Group 129" transform="translate(274.661 -0.002)" style="mix-blend-mode: multiply;isolation: isolate">
                  <g id="Group_128" data-name="Group 128" transform="translate(0)">
                    <g id="Group_127" data-name="Group 127" clip-path="url(#clip-path-25)">
                      <path id="Path_120" data-name="Path 120" d="M42.15,92.757c-1.1-22.088-7.11-56.391-14.368-89.984C27.469,1.326,28.825,0,30.61,0h-9.2c-1.788,0-3.141,1.326-2.83,2.772,7.26,33.593,13.267,67.9,14.37,89.984a2.219,2.219,0,0,0,2.376,1.875h9.2a2.22,2.22,0,0,1-2.376-1.875" transform="translate(-18.536 0.002)" fill="#f2f2f2"/>
                    </g>
                  </g>
                </g>
                <g id="Group_132" data-name="Group 132" transform="translate(270.274 -0.002)" style="mix-blend-mode: multiply;isolation: isolate">
                  <g id="Group_131" data-name="Group 131" transform="translate(0)">
                    <g id="Group_130" data-name="Group 130" transform="translate(0)" clip-path="url(#clip-path-27)">
                      <path id="Path_121" data-name="Path 121" d="M17.5,2.772c7.256,33.593,13.261,67.9,14.366,89.984a2.221,2.221,0,0,0,2.377,1.875H49.83V0h-29.5C18.542,0,17.19,1.328,17.5,2.772" transform="translate(-17.457 0.002)" fill="#f2f2f2"/>
                    </g>
                  </g>
                </g>
                <path id="Path_122" data-name="Path 122" d="M72.253,47.953c2.409-3.939,5.864-8.551,5.1-13.1-.855-5.057-6.541-9.758-11.8-8.616-6.537,1.422-12.291,6.372-16.714,11.119C44,42.545,39.945,49.891,34.8,54.777S20.11,64.891,13,64.975c5.608,4.619,3.981,13.535,12.573,15.217,12.039,2.359,2.01,26.661,19.358.006,4.868-7.477,7.442-7.327,13.5-13.569,5.612-5.784,9.513-11.624,13.821-18.676" transform="translate(233.448 22.267)" fill="#d6a678"/>
                <g id="Group_135" data-name="Group 135" transform="translate(261.791 89.205)" style="mix-blend-mode: multiply;isolation: isolate">
                  <g id="Group_134" data-name="Group 134" transform="translate(0)">
                    <g id="Group_133" data-name="Group 133" transform="translate(0)" clip-path="url(#clip-path-28)">
                      <path id="Path_123" data-name="Path 123" d="M27.792,56.26a3.524,3.524,0,0,0,1.448.174c-.744-2.049-1.882-5.391-.15-7.282,1.519-1.658,4.089-1.072,5.819-.134C39.968,51.763,44.658,56,49.3,59.6c.063-.013.124-.026.187-.041-.03.039-.061.078-.091.115a29.34,29.34,0,0,0-2.287,3.449c-1.526,2.657-3.931,6.891-6.453,11.373-.015.026-.028.052-.043.076-.132-.076-.25-.156-.369-.239A4.409,4.409,0,0,1,38.6,70.507c-.158-.287-.312-.573-.469-.859-2.769-5.059-5.658-9.893-10.338-13.389" transform="translate(-27.792 -48.104)" fill="#d1d3d4"/>
                    </g>
                  </g>
                </g>
                <g id="Group_138" data-name="Group 138" transform="translate(198.424 50.203)" style="mix-blend-mode: multiply;isolation: isolate">
                  <g id="Group_137" data-name="Group 137" transform="translate(0)">
                    <g id="Group_136" data-name="Group 136" transform="translate(0)" clip-path="url(#clip-path-29)">
                      <path id="Path_124" data-name="Path 124" d="M30.47,131.963l15.36-23.44L68.21,123.141c4.271-4.771,7.978-9.84,8.51-10.605,1.435-2.292,2.164-3.722,2.164-3.722,3.36-6.385,11.824-21.359,15.408-27.605,6.363-11.084,10.817-6.133,25.194-28.822,4.931-7.794,7.968-12.074,7.217-16.529-.853-5.055-6.541-9.758-11.794-8.614-6.541,1.422-12.293,6.372-16.714,11.117C89.361,47.838,84.38,63,65.306,63.23c-8.755.1-17.669-5.571-25.8-2.333-6.748,2.687-9.8,10.342-12.139,17.209-1.975,5.806-3.97,12.019-2.433,17.955.94,3.635-9.66,15.887-13.489,23.277,2.659,2.548,9.233,5.838,15.937,9.22,1.765.89,4.864,1.033,6.565,1.595Z" transform="translate(-11.446 -27.072)" fill="#e6e7e8"/>
                    </g>
                  </g>
                </g>
                <path id="Path_125" data-name="Path 125" d="M95.035,80.724c-3.585,6.246-12.05,21.22-15.408,27.607,0,0-.729,1.43-2.164,3.72-.762,1.1-8.024,11.01-14.138,16.243-9.86,8.436-20.482,10.231-32.684,4.076-6.7-3.382-15.792-10.967-18.453-13.517,3.829-7.388,14.431-19.64,13.491-23.275-1.537-5.938.458-12.15,2.433-17.955C30.447,70.754,33.5,63.1,40.25,60.414c8.128-3.238,17.044,2.437,25.8,2.333C85.121,62.519,90.1,47.353,98.939,37.879c4.421-4.745,10.173-9.695,16.714-11.119,5.254-1.142,10.941,3.559,11.794,8.616.751,4.454-2.287,8.733-7.219,16.527C105.852,74.591,101.4,69.64,95.035,80.724" transform="translate(184.861 22.716)" fill="#ffc295"/>
                <g id="Group_141" data-name="Group 141" transform="translate(237.246 58.092)" style="mix-blend-mode: multiply;isolation: isolate">
                  <g id="Group_140" data-name="Group 140">
                    <g id="Group_139" data-name="Group 139" clip-path="url(#clip-path-30)">
                      <path id="Path_126" data-name="Path 126" d="M54.837,76.674c-3.585,6.246-12.05,21.22-15.408,27.607,0,0-.729,1.43-2.164,3.72-.762,1.1-8.024,11.01-14.138,16.243a64.282,64.282,0,0,1-10.939,7.941c5.827-4.8,10.954-12.415,16.07-18.1,7.983-8.868,13.131-19,18.453-29.224C51.931,74.835,60.1,65.987,68.621,58.8c2.227-1.879,8.475-8.134,11.748-13.432,3.138-5.089,6.457-9.571,6.88-14.04.751,4.454-2.287,8.733-7.219,16.527C65.654,70.542,61.2,65.59,54.837,76.674" transform="translate(-12.186 -31.326)" fill="#f1f2f2"/>
                    </g>
                  </g>
                </g>
                <path id="Path_127" data-name="Path 127" d="M23.712,47.328,14.239,39.78a2.656,2.656,0,0,1-.577-3.522l2.921-4.5A8.7,8.7,0,0,1,28.6,29.191,8.683,8.683,0,0,1,31.55,41.427L27.508,46.84a2.666,2.666,0,0,1-3.8.488" transform="translate(277.528 23.751)" fill="#f6e2ca"/>
                <path id="Path_128" data-name="Path 128" d="M282.867,116.361c-1.2,2.066-157.155,263.744-157.315,264.019L61.04,338.592S237.344,86.054,242.7,78.575Z" transform="translate(-61.04 67.137)" fill="#0078c7"/>
                <g id="Group_144" data-name="Group 144" transform="translate(159.718 146.072)" style="mix-blend-mode: multiply;isolation: isolate">
                  <g id="Group_143" data-name="Group 143" transform="translate(0)">
                    <g id="Group_142" data-name="Group 142" clip-path="url(#clip-path-31)">
                      <path id="Path_129" data-name="Path 129" d="M107.637,141.907l-6.839-4.43-.28.059-.061-.28L59.378,110.645l1.637-2.262.966-1.337,1.556-2.149,2.1-2.906,1.077-1.491,3.336-4.61,4.011-5.541,2.1-2.906,4.293-5.934,1.984-2.739,38.463,24.914c.132.085.261.172.386.269a7.966,7.966,0,0,1,3.115,4.885,7.872,7.872,0,0,1,.126.909c.007.063.011.126.015.191a7.173,7.173,0,0,1,0,.936,7.891,7.891,0,0,1-1.055,3.535l-.471.822-.336.58-.614,1.064,0,0-.72,1.246-.321.553-.909,1.576-.614,1.066-.148.258-2.9,5.033-.618,1.068-.128.221-.618,1.068-2.023,3.514-.946,1.639-.618,1.066-.108.191-.317.553-1.521,2.635-.152.261-.465.8Z" transform="translate(-59.376 -78.769)" fill="#b8bec4"/>
                    </g>
                  </g>
                </g>
                <path id="Path_130" data-name="Path 130" d="M110.038,143.132l-50.172-32.5L83.486,78c5.654,3.662,18.147,11.757,18.978,12.289,30.813,20.061,30.383,13.793,13.76,42.12-.006.017-6.177,10.713-6.186,10.728" transform="translate(96.514 66.641)" fill="#10a2ff"/>
                <g id="Group_147" data-name="Group 147" transform="translate(208.154 176.002)" style="mix-blend-mode: multiply;isolation: isolate">
                  <g id="Group_146" data-name="Group 146" transform="translate(0)">
                    <g id="Group_145" data-name="Group 145" transform="translate(0)" clip-path="url(#clip-path-32)">
                      <path id="Path_131" data-name="Path 131" d="M70.738,95.713a5,5,0,1,0,1.478,6.913,5,5,0,0,0-1.478-6.913" transform="translate(-63.02 -94.909)" fill="#a2a8b1"/>
                    </g>
                  </g>
                </g>
                <path id="Path_132" data-name="Path 132" d="M72.267,102.394a5,5,0,1,1-1.478-6.913,5,5,0,0,1,1.478,6.913" transform="translate(144.991 80.894)" fill="#fffffd"/>
                <path id="Path_133" data-name="Path 133" d="M70.337,100.9A3.515,3.515,0,1,1,69.3,96.041a3.514,3.514,0,0,1,1.038,4.862" transform="translate(145.674 81.578)" fill="#f3f3f3"/>
                <path id="Path_134" data-name="Path 134" d="M65.97,97.175a.508.508,0,1,1-.15-.7.509.509,0,0,1,.15.7" transform="translate(148.367 82.359)" fill="#686b77"/>
                <path id="Path_135" data-name="Path 135" d="M66.886,98.59a.508.508,0,1,1-.15-.7.509.509,0,0,1,.15.7" transform="translate(145.753 83.568)" fill="#686b77"/>
                <path id="Path_136" data-name="Path 136" d="M65.018,98.491a.508.508,0,1,1,.7-.15.509.509,0,0,1-.7.15" transform="translate(149.078 83.355)" fill="#686b77"/>
                <path id="Path_137" data-name="Path 137" d="M66.432,97.575a.508.508,0,1,1,.7-.15.509.509,0,0,1-.7.15" transform="translate(145.042 82.572)" fill="#686b77"/>
                <g id="Group_150" data-name="Group 150" transform="translate(0 178.457)" opacity="0.3">
                  <g id="Group_149" data-name="Group 149">
                    <g id="Group_148" data-name="Group 148" transform="translate(0)" clip-path="url(#clip-path-33)">
                      <path id="Path_138" data-name="Path 138" d="M248.605,96.233,90.4,323.5l9.267,6L257.783,102.178Z" transform="translate(-90.398 -96.233)" fill="#fff"/>
                    </g>
                  </g>
                </g>
                <g id="Group_153" data-name="Group 153" transform="translate(55.245 204.273)" style="mix-blend-mode: multiply;isolation: isolate">
                  <g id="Group_152" data-name="Group 152" transform="translate(0)">
                    <g id="Group_151" data-name="Group 151" transform="translate(0)" clip-path="url(#clip-path-34)">
                      <path id="Path_139" data-name="Path 139" d="M220.363,115.587,78.8,353.4l-9.265-6L212.348,110.154Z" transform="translate(-69.534 -110.154)" fill="#ced4d7"/>
                    </g>
                  </g>
                </g>
                <g id="Group_156" data-name="Group 156" transform="translate(156.38 144.636)" opacity="0.3">
                  <g id="Group_155" data-name="Group 155" transform="translate(0)">
                    <g id="Group_154" data-name="Group 154" transform="translate(0)" clip-path="url(#clip-path-35)">
                      <path id="Path_140" data-name="Path 140" d="M108.892,80.352,87.017,114.122l-5.385-3.49,1.637-2.262.966-1.337,1.556-2.149,2.1-2.906,1.077-1.491,3.338-4.61,4.009-5.541,2.1-2.906L102.72,81.5l2.531-3.5Z" transform="translate(-81.631 -77.995)" fill="#fff"/>
                    </g>
                  </g>
                </g>
                <g id="Group_159" data-name="Group 159" transform="translate(201.818 173.856)" style="mix-blend-mode: multiply;isolation: isolate">
                  <g id="Group_158" data-name="Group 158" transform="translate(0)">
                    <g id="Group_157" data-name="Group 157" clip-path="url(#clip-path-36)">
                      <path id="Path_141" data-name="Path 141" d="M64.629,129.669,59.894,126.6,81.176,93.752a7.96,7.96,0,0,1,.7,2.034,8.106,8.106,0,0,1,.139,1.1,7.98,7.98,0,0,1-1.057,4.471l-.807,1.4-1.335,2.314L77.584,107.2l-.76,1.324-2.9,5.033-.745,1.289-3.586,6.222-.727,1.257-1.836,3.188-.152.261Z" transform="translate(-59.895 -93.752)" fill="#e4e7ea"/>
                    </g>
                  </g>
                </g>
                <g id="Group_162" data-name="Group 162" transform="translate(156.637 178.457)" style="mix-blend-mode: multiply;isolation: isolate">
                  <g id="Group_161" data-name="Group 161" transform="translate(0)">
                    <g id="Group_160" data-name="Group 160" transform="translate(0)" clip-path="url(#clip-path-37)">
                      <path id="Path_142" data-name="Path 142" d="M71.057,96.232,69.488,98.4l46.5,34.044,3.028-5.15Z" transform="translate(-69.488 -96.233)" fill="#b8bec4"/>
                    </g>
                  </g>
                </g>
              </g>
            </g>
          </g>
        </g>
        <path id="Intersection_10" data-name="Intersection 10" d="M110.435,506.435h0l-.124-.08-9.265-6-.229-.148h0l-5.639-3.652c-2.074,3.16-3.587,5.461-4.451,6.77L50.8,477.243c.882-1.3,2.377-3.536,4.4-6.585l-9.4-6.091-.229-.148v-.428l.09-.13L202.208,238.973v-.09l.1-.132,1.261-1.743-1.384-.9-.23-.148v-.431l.1-.133,1.637-2.262.966-1.337,1.556-2.149,2.105-2.906,1.077-1.49,3.338-4.611,4.01-5.54,2.105-2.906,4.295-5.933,2.515-3.479a.89.89,0,0,1,.111-.154l.056-.077h.023a1.426,1.426,0,0,1,.972-.3,5.342,5.342,0,0,1,2.858,1.043l.4.293-.277.382.166.107.015-.022.278-.385.068.044c.4-.607.6-.927.609-.94,2.616-5.556,5.044-10.489,7.319-14.856a3.708,3.708,0,0,1,.4-1.1c6.713-12.454,15.726-28.218,24.464-41.223,5.716-8.5,14.767-22.06,19.5-27.1,5.881-6.257,6.374-3.611,19.667-9.157,6.67-2.782,14.2-8.173,21.6-10.48-2.188-12.2-4.75-24.988-7.492-37.68-.314-1.444,1.038-2.772,2.83-2.772h59c1.791,0,3.143,1.327,2.831,2.772-7.26,33.593-13.264,67.9-14.369,89.985a2.218,2.218,0,0,1-2.374,1.875H351.842c1.57,8.977.978,13.666.3,15.661-1.009,2.965-3.863,5-6.88,5.872-2.48.718-5.018.2-7.59.089l-.009.014c-.245.393-.506.789-.774,1.193h0c-.545.82-1.113,1.671-1.616,2.588-2.03,3.705-3.907,7.348-7,10.229-.474.441-.964.89-1.469,1.329h0v0a5.562,5.562,0,0,1,.183.8.005.005,0,0,1,0,0c0,.022.006.043.009.065l0,.018,0,.027c0,.016,0,.032.006.049a5.823,5.823,0,0,1-.866,3.547c-2.033,3.705-3.32,4.9-7.55,7.57-3.805,2.4-7.287,6.361-11.727,5.61a24.763,24.763,0,0,1-5.358-2.555l-.16.178-.36-.235-1.437-.939c-.8.886-1.621,1.759-2.442,2.586-.294.3-.59.59-.885.876a45.416,45.416,0,0,1-8.186,6.761,44.108,44.108,0,0,1-4.7,2.968A79.326,79.326,0,0,0,274,223.477a12.873,12.873,0,0,0-2.383,2.5,5.4,5.4,0,0,0-.426.728c-.06.125-.595.975-1.558,2.478l.266.172a8.5,8.5,0,0,1,2.744,11.39l-16.328,28.313-.264.456-.442-.286-2.191-1.418-.362.627-.145.25h-.376c-26.32,44.181-79.459,133.35-112.017,187.984-17.071,28.647-29.406,49.344-29.5,49.512l-.146.247ZM320.423,175.979c.328.47.614.862.845,1.145.177.217.335-.071.047-1.328-.118-.281-.231-.561-.327-.823Q320.706,175.474,320.423,175.979ZM330.69,158.8a2.808,2.808,0,0,0,1.5-.726,6.974,6.974,0,0,0,.712-1.5A22.26,22.26,0,0,0,330.69,158.8Zm-7.666-35.139-.882.076-.579.049c-.8.069-1.2.1-2,.159.009.192.019.389.024.588v.007a29.522,29.522,0,0,1-.082,3.241c-.026.324-.057.652-.093.98s-.078.674-.126,1.012c1.548-2.02,3.046-4.138,4.563-6.183Z" transform="translate(-1144.592 1288.332)" fill="#ed690f" opacity="0.4" style="mix-blend-mode: hard-light;isolation: isolate"/>
      </g>
    </g>
    <rect id="Rectangle_129" data-name="Rectangle 129" width="393" height="581" transform="translate(0 60)" fill="url(#linear-gradient)"/>
  </g>
</svg>
